M48
;Layer_Color=9474304
;FILE_FORMAT=4:4
METRIC,LZ
;TYPE=PLATED
T1F00S00C0.3000
T4F00S00C1.0000
T5F00S00C1.1000
T6F00S00C1.5000
T7F00S00C3.2000
%
T01
X00324Y00066
X00373Y000685
X00394Y00085
X00404Y0011166
X00469Y00107
X0046225Y000865
X004826Y00092
X00462Y00041
X00443
X004535Y001515
X00449Y00217
X0047575Y0025
X00393Y00252
X00327Y002688
X0060525Y00183
X00629453Y00184548
X00629Y00175
X0067Y00159
X0068Y00127
X00613Y00072
Y00064
X0032Y00072
X00304Y00082
X00283Y00066
X00304Y0013928
X00243Y00134034
X00208Y00141
X001985Y00148
X00161Y00134
X00141Y00138
X00147Y00174
Y0018357
X00157Y00184
X00159Y00201
X00166Y00209
X00177Y0021
X00173753Y00199323
X00208Y00207
X00199Y00226
X0022Y00249
X00235Y00203
X00242Y001855
X0027Y00235
X00304Y00238787
X00182Y00288
X0015Y00273
X00101Y00271
X00107Y00252
X00077Y002485
X000775Y002275
X00059Y0022125
X00058566Y00215
X000765Y00184
X00113Y00194
Y00217
X00138Y00227
X001356Y00183
X00120756Y00162
X0011325
X00106652Y00162271
X0011325Y00155
X00087Y00115663
Y001065
X00078Y00293
X00091Y00321
X000395Y002835
X00009Y00289
X00098Y0037
X00091Y00378
X00109Y0040625
X001142Y00414
X00122Y00409
X00175Y0041525
X002018Y004102
X0021Y00434
X00225Y004475
X00217Y00481
X002775Y00485
X0031425Y004245
X00274Y00342
X0022Y00335
X00213Y003885
X00061Y00438566
X00058Y00522
X003255Y0041625
X00324Y0040375
X00402Y00375
Y00367
X00414
Y00375
Y00479
Y00486
X00402
Y00479
X00547Y00404
X0056Y00416
X00573Y00415
Y00404
X00574Y00386
X00625Y0045
T04
X0060075Y002625
Y003075
X0066575
X001925Y0008338
Y0001838
X002375
T05
X003302Y000254
X003556
X00381
X004064
X004318
X004572
X00508
X005334
X005588
X005842
X006096
X00635
X0062065Y0012573
X0059525
X0056985
X0054445
X0051905
X0049365
X0046825
X0044285
X0041745
X0039205
X0036665
X0034125
Y0020193
X0036665
X0039205
X0041745
X0044285
X0046825
X0049365
X0051905
X0054445
X0056985
X0059525
X0062065
X0031585
X0029045
Y0012573
X0031585
X003048Y000254
X002794
X00165Y00083
X001396
X001142
X000508Y003166
X000254
Y00342
X000508
Y0038608
Y0041148
X000762
Y0038608
X000254
Y0041148
Y0047244
Y0049784
X000508
X000762
Y0047244
X000508
X00146Y00446
Y004206
Y003952
Y003698
X0018796Y00508
X0021336
X0023876
X0026416
X0028956
X0031496
X0034036
X0036576
X0039116
X0041656
X004572
X004826
X00508
X005334
X005588
X005842
X006096
X00635
X00662Y00469
Y004436
Y004182
T06
X0002Y00022
X00021Y00125
T07
X006604Y000762
X001397Y000254
X001524Y00508
X006604Y003556
M30
