G04*
G04 #@! TF.GenerationSoftware,Altium Limited,Altium Designer,18.1.9 (240)*
G04*
G04 Layer_Physical_Order=2*
G04 Layer_Color=16711680*
%FSLAX44Y44*%
%MOMM*%
G71*
G01*
G75*
%ADD10C,0.2000*%
%ADD11C,0.5000*%
%ADD12C,0.4000*%
%ADD14R,1.9000X1.9000*%
%ADD67C,1.9000*%
%ADD68R,1.9000X1.9000*%
%ADD75C,1.0000*%
G04:AMPARAMS|DCode=76|XSize=2mm|YSize=1.2mm|CornerRadius=0.36mm|HoleSize=0mm|Usage=FLASHONLY|Rotation=0.000|XOffset=0mm|YOffset=0mm|HoleType=Round|Shape=RoundedRectangle|*
%AMROUNDEDRECTD76*
21,1,2.0000,0.4800,0,0,0.0*
21,1,1.2800,1.2000,0,0,0.0*
1,1,0.7200,0.6400,-0.2400*
1,1,0.7200,-0.6400,-0.2400*
1,1,0.7200,-0.6400,0.2400*
1,1,0.7200,0.6400,0.2400*
%
%ADD76ROUNDEDRECTD76*%
%ADD77C,3.2000*%
%ADD78O,1.6000X2.0000*%
%ADD79R,1.6000X2.0000*%
%ADD80R,2.0000X1.6000*%
%ADD81O,2.0000X1.6000*%
%ADD82C,1.7000*%
%ADD83R,1.7000X1.7000*%
%ADD84C,4.0000*%
%ADD85C,7.4000*%
%ADD86C,0.6000*%
G36*
X681000Y474000D02*
X675000D01*
Y480000D01*
X649000D01*
Y474000D01*
X599462D01*
X599061Y474268D01*
X597500Y474578D01*
X597500Y474578D01*
X304178D01*
X304178Y474578D01*
X302617Y474268D01*
X302216Y474000D01*
X276000D01*
X257078Y492922D01*
Y500557D01*
X257000Y500951D01*
Y528586D01*
X258000Y529000D01*
X681000D01*
Y474000D01*
D02*
G37*
G36*
X100350Y455717D02*
X99177Y455231D01*
X86691Y467717D01*
X87404Y469438D01*
X87799Y472440D01*
X87404Y475442D01*
X86245Y478240D01*
X84402Y480642D01*
X82000Y482485D01*
X79202Y483644D01*
X76200Y484039D01*
X73198Y483644D01*
X70400Y482485D01*
X67998Y480642D01*
X66155Y478240D01*
X64996Y475442D01*
X64601Y472440D01*
X64996Y469438D01*
X66155Y466640D01*
X67998Y464238D01*
X70400Y462395D01*
X73198Y461236D01*
X76200Y460841D01*
X79202Y461236D01*
X80923Y461949D01*
X99756Y443116D01*
X99756Y443116D01*
X100350Y442719D01*
Y391070D01*
X101458D01*
X101587Y390876D01*
X102579Y390213D01*
X103750Y389980D01*
X126350D01*
Y380070D01*
X127458D01*
X127587Y379876D01*
X128580Y379213D01*
X129750Y378980D01*
X135919D01*
X136327Y377778D01*
X136155Y377645D01*
X134391Y375347D01*
X133283Y372672D01*
X132905Y369800D01*
X133283Y366928D01*
X134391Y364253D01*
X136155Y361955D01*
X138453Y360191D01*
X141128Y359083D01*
X144000Y358705D01*
X148000D01*
X150872Y359083D01*
X153547Y360191D01*
X155845Y361955D01*
X157608Y364253D01*
X158717Y366928D01*
X159095Y369800D01*
X158717Y372672D01*
X157608Y375347D01*
X155845Y377645D01*
X155673Y377778D01*
X156081Y378980D01*
X191750D01*
X192920Y379213D01*
X193913Y379876D01*
X194576Y380868D01*
X194809Y382039D01*
Y437980D01*
X214691D01*
X214691Y403317D01*
X214924Y402146D01*
X215587Y401154D01*
X216350Y400644D01*
Y395070D01*
X216546Y394875D01*
X215736Y393888D01*
X215341Y394152D01*
X213000Y394618D01*
X210659Y394152D01*
X208674Y392826D01*
X207348Y390841D01*
X206882Y388500D01*
X207348Y386159D01*
X208674Y384174D01*
X210659Y382848D01*
X213000Y382383D01*
X213292Y382440D01*
X214616Y381116D01*
X214616Y381116D01*
X215939Y380232D01*
X217500Y379922D01*
X217500Y379922D01*
X231498D01*
X232350Y379070D01*
X550850D01*
X564350Y392570D01*
X574931D01*
Y391142D01*
X575206Y389054D01*
X575931Y387303D01*
Y384697D01*
X575206Y382946D01*
X574931Y380858D01*
Y353651D01*
X558350Y337070D01*
Y184070D01*
X568759D01*
Y183661D01*
X576350Y176070D01*
X623350D01*
X623350Y188000D01*
X633922D01*
Y170169D01*
X603102Y139350D01*
X584350D01*
X584550Y139150D01*
Y130642D01*
X584533Y130602D01*
X584155Y127730D01*
Y123730D01*
X584533Y120858D01*
X584550Y120818D01*
Y113070D01*
X592241D01*
X592378Y113013D01*
X595250Y112635D01*
X598122Y113013D01*
X598259Y113070D01*
X617641D01*
X617778Y113013D01*
X620650Y112635D01*
X623522Y113013D01*
X623659Y113070D01*
X633350D01*
Y121570D01*
Y135070D01*
X685350D01*
Y3070D01*
X624350D01*
Y17206D01*
X625620Y17555D01*
X627155Y15555D01*
X629453Y13792D01*
X632128Y12683D01*
X635000Y12305D01*
X637872Y12683D01*
X640547Y13792D01*
X642845Y15555D01*
X644609Y17852D01*
X645717Y20528D01*
X646095Y23400D01*
Y27400D01*
X645717Y30272D01*
X644609Y32947D01*
X642845Y35245D01*
X640547Y37009D01*
X637872Y38117D01*
X635000Y38495D01*
X632128Y38117D01*
X629453Y37009D01*
X627155Y35245D01*
X625620Y33245D01*
X624350Y33594D01*
Y80070D01*
X530350D01*
X512350Y62070D01*
X373350D01*
X360350Y75070D01*
Y76270D01*
X358056D01*
X357163Y77163D01*
X356171Y77826D01*
X355000Y78059D01*
X355000Y78059D01*
X320295D01*
X320000Y78117D01*
X319704Y78059D01*
X294361D01*
X242350Y130070D01*
X242256D01*
X242163Y130163D01*
X241171Y130826D01*
X240000Y131059D01*
X238829Y130826D01*
X237837Y130163D01*
X237837Y130163D01*
X237744Y130070D01*
X154256D01*
X151350Y132976D01*
Y141070D01*
X151059Y141361D01*
Y146000D01*
X150826Y147170D01*
X150163Y148163D01*
X149171Y148826D01*
X148000Y149059D01*
X143361D01*
X142350Y150070D01*
X101890D01*
Y180070D01*
X73059D01*
Y230000D01*
X72826Y231171D01*
X72163Y232163D01*
X71171Y232826D01*
X70000Y233059D01*
X66350D01*
Y233070D01*
X55350D01*
Y306037D01*
X56600Y306555D01*
X59002Y308398D01*
X60845Y310800D01*
X62004Y313598D01*
X62399Y316600D01*
X62004Y319602D01*
X60845Y322400D01*
X59002Y324802D01*
X56600Y326645D01*
X55350Y327163D01*
Y330500D01*
X62300D01*
Y353500D01*
X55350D01*
Y375517D01*
X56600Y376035D01*
X59002Y377878D01*
X60845Y380280D01*
X62004Y383078D01*
X62399Y386080D01*
X62004Y389082D01*
X60845Y391880D01*
X59002Y394282D01*
X56600Y396125D01*
X55350Y396643D01*
Y400917D01*
X56600Y401435D01*
X59002Y403278D01*
X60845Y405680D01*
X62004Y408478D01*
X62399Y411480D01*
X62004Y414482D01*
X60845Y417280D01*
X59002Y419682D01*
X56600Y421525D01*
X55350Y422043D01*
Y461877D01*
X56600Y462395D01*
X59002Y464238D01*
X60845Y466640D01*
X62004Y469438D01*
X62399Y472440D01*
X62004Y475442D01*
X60845Y478240D01*
X59002Y480642D01*
X56600Y482485D01*
X55350Y483003D01*
Y487277D01*
X56600Y487795D01*
X59002Y489638D01*
X60845Y492040D01*
X62004Y494838D01*
X62399Y497840D01*
X62004Y500842D01*
X60845Y503640D01*
X59002Y506042D01*
X56600Y507885D01*
X55350Y508403D01*
Y514070D01*
X54350Y515070D01*
X3350D01*
Y530070D01*
X100350D01*
Y455717D01*
D02*
G37*
G36*
X51630Y510991D02*
X51615Y510433D01*
X50800Y509439D01*
X47798Y509044D01*
X45000Y507885D01*
X42598Y506042D01*
X40755Y503640D01*
X39596Y500842D01*
X39201Y497840D01*
X39596Y494838D01*
X40755Y492040D01*
X42598Y489638D01*
X45000Y487795D01*
X47798Y486636D01*
X50800Y486241D01*
X51467Y485162D01*
Y485118D01*
X50800Y484039D01*
X47798Y483644D01*
X45000Y482485D01*
X42598Y480642D01*
X40755Y478240D01*
X39596Y475442D01*
X39201Y472440D01*
X39596Y469438D01*
X40755Y466640D01*
X42598Y464238D01*
X45000Y462395D01*
X47798Y461236D01*
X50800Y460841D01*
X51045Y460873D01*
X52000Y460036D01*
Y423884D01*
X51045Y423047D01*
X50800Y423079D01*
X47798Y422684D01*
X45000Y421525D01*
X42598Y419682D01*
X40755Y417280D01*
X39596Y414482D01*
X39201Y411480D01*
X39596Y408478D01*
X40755Y405680D01*
X42598Y403278D01*
X45000Y401435D01*
X47798Y400276D01*
X50800Y399881D01*
X51467Y398802D01*
Y398758D01*
X50800Y397679D01*
X47798Y397284D01*
X45000Y396125D01*
X42598Y394282D01*
X40755Y391880D01*
X39596Y389082D01*
X39201Y386080D01*
X39596Y383078D01*
X40755Y380280D01*
X42598Y377878D01*
X45000Y376035D01*
X47798Y374876D01*
X50800Y374481D01*
X51045Y374513D01*
X52000Y373676D01*
Y353500D01*
X39300D01*
Y330500D01*
X52000D01*
Y329004D01*
X51045Y328167D01*
X50800Y328199D01*
X47798Y327804D01*
X45000Y326645D01*
X42598Y324802D01*
X40755Y322400D01*
X39596Y319602D01*
X39201Y316600D01*
X39596Y313598D01*
X40755Y310800D01*
X42598Y308398D01*
X45000Y306555D01*
X47798Y305396D01*
X50800Y305001D01*
X51045Y305033D01*
X52000Y304196D01*
Y184000D01*
X53181Y182819D01*
X53837Y181837D01*
X60000Y175674D01*
Y159000D01*
X61181Y157819D01*
X61837Y156837D01*
X61837Y156837D01*
X70000Y148674D01*
Y139068D01*
X71158Y137910D01*
X71174Y137830D01*
X71837Y136837D01*
X71837Y136837D01*
X80068Y128606D01*
Y100000D01*
X81728D01*
X81837Y99837D01*
X82830Y99174D01*
X84000Y98941D01*
X97000D01*
X98170Y99174D01*
X99163Y99837D01*
X99272Y100000D01*
X101000D01*
Y146000D01*
X148000D01*
Y132000D01*
X153000Y127000D01*
X239000D01*
X240000Y128000D01*
X293000Y75000D01*
X355000D01*
X372000Y58000D01*
Y57861D01*
X512861D01*
X531000Y76000D01*
X620292D01*
X620770Y69923D01*
X621000Y68966D01*
Y31941D01*
X619730Y31688D01*
X619208Y32947D01*
X617445Y35245D01*
X615148Y37009D01*
X612472Y38117D01*
X609600Y38495D01*
X606728Y38117D01*
X604053Y37009D01*
X601755Y35245D01*
X599991Y32947D01*
X598883Y30272D01*
X598505Y27400D01*
Y23400D01*
X598883Y20528D01*
X599991Y17852D01*
X601755Y15555D01*
X604053Y13792D01*
X606728Y12683D01*
X609600Y12305D01*
X612472Y12683D01*
X615148Y13792D01*
X617445Y15555D01*
X619208Y17852D01*
X619730Y19112D01*
X621000Y18859D01*
Y3000D01*
X397000D01*
Y15605D01*
X398203Y16014D01*
X398555Y15555D01*
X400853Y13792D01*
X403528Y12683D01*
X406400Y12305D01*
X409272Y12683D01*
X411948Y13792D01*
X414245Y15555D01*
X416008Y17852D01*
X417117Y20528D01*
X417495Y23400D01*
Y27400D01*
X417117Y30272D01*
X416008Y32947D01*
X414245Y35245D01*
X411948Y37009D01*
X409272Y38117D01*
X406400Y38495D01*
X403528Y38117D01*
X400853Y37009D01*
X398555Y35245D01*
X398203Y34786D01*
X397000Y35195D01*
Y43616D01*
X370500D01*
X351116Y63000D01*
X347296D01*
X347000Y63059D01*
X347000Y63059D01*
X324591D01*
X324296Y63000D01*
X323704D01*
X323409Y63059D01*
X283591D01*
X283295Y63000D01*
X282705D01*
X282409Y63059D01*
X277441D01*
X266500Y74000D01*
X264456D01*
X264160Y74059D01*
X264160Y74059D01*
X252000D01*
Y97000D01*
X225322D01*
Y97678D01*
X209000Y114000D01*
X152400D01*
Y71500D01*
X126000D01*
X125988Y96000D01*
X122295D01*
X122000Y96059D01*
X114475D01*
X114200Y96095D01*
X113925Y96059D01*
X101000D01*
X100705Y96000D01*
X98000D01*
Y93295D01*
X97941Y93000D01*
Y90267D01*
X64733Y57059D01*
X3000D01*
Y108793D01*
X4196Y109221D01*
X4658Y108658D01*
X8160Y105784D01*
X12156Y103648D01*
X16491Y102333D01*
X21000Y101889D01*
X25509Y102333D01*
X29844Y103648D01*
X33840Y105784D01*
X37342Y108658D01*
X40216Y112160D01*
X42352Y116156D01*
X43667Y120491D01*
X44111Y125000D01*
X43667Y129509D01*
X42352Y133844D01*
X40216Y137840D01*
X37342Y141342D01*
X33840Y144216D01*
X29844Y146352D01*
X25509Y147667D01*
X21000Y148111D01*
X16491Y147667D01*
X12156Y146352D01*
X8160Y144216D01*
X4658Y141342D01*
X4196Y140779D01*
X3000Y141207D01*
Y512000D01*
X50639D01*
X51630Y510991D01*
D02*
G37*
G36*
X241595Y438616D02*
X241595Y438616D01*
X242918Y437732D01*
X243177Y437681D01*
X244479Y437422D01*
X244479Y437422D01*
X246367D01*
X249750Y434039D01*
X312795Y434039D01*
X317500Y429334D01*
Y388078D01*
X253363D01*
X238125Y403317D01*
X217750D01*
X217750Y441039D01*
X191750D01*
Y382039D01*
X129750D01*
Y393039D01*
X103750D01*
Y434039D01*
X165750D01*
Y453922D01*
X226290D01*
X241595Y438616D01*
D02*
G37*
G36*
X70000Y177000D02*
X97000D01*
Y102000D01*
X84000D01*
Y129000D01*
X74000Y139000D01*
Y149000D01*
X64000Y159000D01*
Y176000D01*
X56000Y184000D01*
Y230000D01*
X70000D01*
Y177000D01*
D02*
G37*
G36*
X223000Y94000D02*
Y71000D01*
X225000D01*
Y70880D01*
X250000D01*
Y71000D01*
X264160D01*
X274000Y61160D01*
Y60000D01*
X282409D01*
X283000Y59882D01*
X283591Y60000D01*
X323409D01*
X324000Y59882D01*
X324591Y60000D01*
X347000D01*
X366000Y41000D01*
Y39295D01*
X365941Y39000D01*
Y14059D01*
X345000D01*
Y35000D01*
X341000Y39000D01*
X273395Y39000D01*
X260059D01*
Y43000D01*
X259826Y44170D01*
X259163Y45163D01*
X258171Y45826D01*
X257000Y46059D01*
X221336D01*
X196875Y70519D01*
X197123Y71765D01*
X198804Y72461D01*
X201415Y74465D01*
X203419Y77076D01*
X204678Y80117D01*
X205108Y83380D01*
X204678Y86643D01*
X203419Y89684D01*
X201415Y92295D01*
X198804Y94299D01*
X195763Y95558D01*
X192500Y95988D01*
X189237Y95558D01*
X186196Y94299D01*
X183585Y92295D01*
X181581Y89684D01*
X180322Y86643D01*
X179892Y83380D01*
X180322Y80117D01*
X181581Y77076D01*
X183585Y74465D01*
X185794Y72770D01*
X185363Y71500D01*
X157000Y71500D01*
Y110000D01*
X207000Y110000D01*
X223000Y94000D01*
D02*
G37*
G36*
X122000Y67500D02*
X191500D01*
X217000Y42000D01*
X218000Y43000D01*
X257000D01*
Y11000D01*
X369000D01*
Y39000D01*
X393000D01*
Y3000D01*
X174186D01*
X173565Y4108D01*
X175450Y7184D01*
X177860Y13001D01*
X178803Y16927D01*
X180092Y16860D01*
X180322Y15117D01*
X181581Y12076D01*
X183585Y9465D01*
X186196Y7461D01*
X189237Y6202D01*
X192500Y5772D01*
X195763Y6202D01*
X198804Y7461D01*
X201415Y9465D01*
X203419Y12076D01*
X204678Y15117D01*
X205108Y18380D01*
X204678Y21643D01*
X203419Y24684D01*
X201415Y27295D01*
X198804Y29299D01*
X195763Y30558D01*
X192500Y30988D01*
X189237Y30558D01*
X186196Y29299D01*
X183585Y27295D01*
X181581Y24684D01*
X180915Y23075D01*
X179664Y23375D01*
X179824Y25400D01*
X179330Y31677D01*
X177860Y37799D01*
X175450Y43616D01*
X172161Y48984D01*
X168072Y53772D01*
X163284Y57861D01*
X157916Y61150D01*
X152099Y63560D01*
X145977Y65030D01*
X139700Y65524D01*
X133423Y65030D01*
X127301Y63560D01*
X121484Y61150D01*
X116116Y57861D01*
X111328Y53772D01*
X107239Y48984D01*
X103949Y43616D01*
X101540Y37799D01*
X100070Y31677D01*
X99576Y25400D01*
X100070Y19123D01*
X101540Y13001D01*
X103949Y7184D01*
X105835Y4108D01*
X105214Y3000D01*
X3000D01*
Y54000D01*
X66000D01*
X101000Y89000D01*
Y93000D01*
X122000D01*
Y67500D01*
D02*
G37*
%LPC*%
G36*
X314960Y521095D02*
X312088Y520717D01*
X309412Y519608D01*
X307115Y517845D01*
X305352Y515547D01*
X304243Y512872D01*
X303865Y510000D01*
Y506211D01*
X301675Y504021D01*
X300473Y504614D01*
X300655Y506000D01*
Y510000D01*
X300277Y512872D01*
X299168Y515547D01*
X297405Y517845D01*
X295107Y519608D01*
X292432Y520717D01*
X289560Y521095D01*
X286688Y520717D01*
X284013Y519608D01*
X281715Y517845D01*
X279951Y515547D01*
X278843Y512872D01*
X278465Y510000D01*
Y506000D01*
X278843Y503128D01*
X279951Y500452D01*
X281715Y498155D01*
X284013Y496391D01*
X286688Y495283D01*
X289560Y494905D01*
X290945Y495088D01*
X291539Y493885D01*
X286732Y489078D01*
X281991D01*
X281826Y489326D01*
X279841Y490652D01*
X277500Y491118D01*
X275159Y490652D01*
X273174Y489326D01*
X271848Y487341D01*
X271382Y485000D01*
X271848Y482659D01*
X273174Y480674D01*
X275159Y479348D01*
X277500Y478882D01*
X279841Y479348D01*
X281826Y480674D01*
X281991Y480922D01*
X288422D01*
X288422Y480922D01*
X289982Y481232D01*
X291306Y482116D01*
X307244Y498055D01*
X309412Y496391D01*
X312088Y495283D01*
X314960Y494905D01*
X317832Y495283D01*
X320508Y496391D01*
X322805Y498155D01*
X324568Y500452D01*
X325677Y503128D01*
X326055Y506000D01*
Y510000D01*
X325677Y512872D01*
X324568Y515547D01*
X322805Y517845D01*
X320508Y519608D01*
X317832Y520717D01*
X314960Y521095D01*
D02*
G37*
G36*
X646000Y521000D02*
X624000D01*
Y495000D01*
X646000D01*
Y521000D01*
D02*
G37*
G36*
X427560D02*
X405560D01*
Y495000D01*
X427560D01*
Y521000D01*
D02*
G37*
G36*
X609600Y521095D02*
X606728Y520717D01*
X604053Y519608D01*
X601755Y517845D01*
X599991Y515547D01*
X598883Y512872D01*
X598505Y510000D01*
Y506000D01*
X598883Y503128D01*
X599991Y500452D01*
X601755Y498155D01*
X604053Y496391D01*
X606728Y495283D01*
X609600Y494905D01*
X612472Y495283D01*
X615148Y496391D01*
X617445Y498155D01*
X619208Y500452D01*
X620317Y503128D01*
X620695Y506000D01*
Y510000D01*
X620317Y512872D01*
X619208Y515547D01*
X617445Y517845D01*
X615148Y519608D01*
X612472Y520717D01*
X609600Y521095D01*
D02*
G37*
G36*
X584200D02*
X581328Y520717D01*
X578652Y519608D01*
X576355Y517845D01*
X574591Y515547D01*
X573483Y512872D01*
X573105Y510000D01*
Y506000D01*
X573483Y503128D01*
X574591Y500452D01*
X576355Y498155D01*
X578652Y496391D01*
X581328Y495283D01*
X584200Y494905D01*
X587072Y495283D01*
X589748Y496391D01*
X592045Y498155D01*
X593809Y500452D01*
X594917Y503128D01*
X595295Y506000D01*
Y510000D01*
X594917Y512872D01*
X593809Y515547D01*
X592045Y517845D01*
X589748Y519608D01*
X587072Y520717D01*
X584200Y521095D01*
D02*
G37*
G36*
X558800D02*
X555928Y520717D01*
X553252Y519608D01*
X550955Y517845D01*
X549192Y515547D01*
X548083Y512872D01*
X547705Y510000D01*
Y506000D01*
X548083Y503128D01*
X549192Y500452D01*
X550955Y498155D01*
X553252Y496391D01*
X555928Y495283D01*
X558800Y494905D01*
X561672Y495283D01*
X564347Y496391D01*
X566645Y498155D01*
X568409Y500452D01*
X569517Y503128D01*
X569895Y506000D01*
Y510000D01*
X569517Y512872D01*
X568409Y515547D01*
X566645Y517845D01*
X564347Y519608D01*
X561672Y520717D01*
X558800Y521095D01*
D02*
G37*
G36*
X533400D02*
X530528Y520717D01*
X527853Y519608D01*
X525555Y517845D01*
X523792Y515547D01*
X522683Y512872D01*
X522305Y510000D01*
Y506000D01*
X522683Y503128D01*
X523792Y500452D01*
X525555Y498155D01*
X527853Y496391D01*
X530528Y495283D01*
X533400Y494905D01*
X536272Y495283D01*
X538947Y496391D01*
X541245Y498155D01*
X543008Y500452D01*
X544117Y503128D01*
X544495Y506000D01*
Y510000D01*
X544117Y512872D01*
X543008Y515547D01*
X541245Y517845D01*
X538947Y519608D01*
X536272Y520717D01*
X533400Y521095D01*
D02*
G37*
G36*
X508000D02*
X505128Y520717D01*
X502453Y519608D01*
X500155Y517845D01*
X498391Y515547D01*
X497283Y512872D01*
X496905Y510000D01*
Y506000D01*
X497283Y503128D01*
X498391Y500452D01*
X500155Y498155D01*
X502453Y496391D01*
X505128Y495283D01*
X508000Y494905D01*
X510872Y495283D01*
X513548Y496391D01*
X515845Y498155D01*
X517608Y500452D01*
X518717Y503128D01*
X519095Y506000D01*
Y510000D01*
X518717Y512872D01*
X517608Y515547D01*
X515845Y517845D01*
X513548Y519608D01*
X510872Y520717D01*
X508000Y521095D01*
D02*
G37*
G36*
X482600D02*
X479728Y520717D01*
X477052Y519608D01*
X474755Y517845D01*
X472991Y515547D01*
X471883Y512872D01*
X471505Y510000D01*
Y506000D01*
X471883Y503128D01*
X472991Y500452D01*
X474755Y498155D01*
X477052Y496391D01*
X479728Y495283D01*
X482600Y494905D01*
X485472Y495283D01*
X488148Y496391D01*
X490445Y498155D01*
X492209Y500452D01*
X493317Y503128D01*
X493695Y506000D01*
Y510000D01*
X493317Y512872D01*
X492209Y515547D01*
X490445Y517845D01*
X488148Y519608D01*
X485472Y520717D01*
X482600Y521095D01*
D02*
G37*
G36*
X457200D02*
X454328Y520717D01*
X451652Y519608D01*
X449355Y517845D01*
X447592Y515547D01*
X446483Y512872D01*
X446105Y510000D01*
Y506000D01*
X446483Y503128D01*
X447592Y500452D01*
X449355Y498155D01*
X451652Y496391D01*
X454328Y495283D01*
X457200Y494905D01*
X460072Y495283D01*
X462747Y496391D01*
X465045Y498155D01*
X466809Y500452D01*
X467917Y503128D01*
X468295Y506000D01*
Y510000D01*
X467917Y512872D01*
X466809Y515547D01*
X465045Y517845D01*
X462747Y519608D01*
X460072Y520717D01*
X457200Y521095D01*
D02*
G37*
G36*
X391160D02*
X388288Y520717D01*
X385612Y519608D01*
X383315Y517845D01*
X381552Y515547D01*
X380443Y512872D01*
X380065Y510000D01*
Y506000D01*
X380443Y503128D01*
X381552Y500452D01*
X383315Y498155D01*
X385612Y496391D01*
X388288Y495283D01*
X391160Y494905D01*
X394032Y495283D01*
X396707Y496391D01*
X399005Y498155D01*
X400769Y500452D01*
X401877Y503128D01*
X402255Y506000D01*
Y510000D01*
X401877Y512872D01*
X400769Y515547D01*
X399005Y517845D01*
X396707Y519608D01*
X394032Y520717D01*
X391160Y521095D01*
D02*
G37*
G36*
X365760D02*
X362888Y520717D01*
X360213Y519608D01*
X357915Y517845D01*
X356152Y515547D01*
X355043Y512872D01*
X354665Y510000D01*
Y506000D01*
X355043Y503128D01*
X356152Y500452D01*
X357915Y498155D01*
X360213Y496391D01*
X362888Y495283D01*
X365760Y494905D01*
X368632Y495283D01*
X371307Y496391D01*
X373605Y498155D01*
X375368Y500452D01*
X376477Y503128D01*
X376855Y506000D01*
Y510000D01*
X376477Y512872D01*
X375368Y515547D01*
X373605Y517845D01*
X371307Y519608D01*
X368632Y520717D01*
X365760Y521095D01*
D02*
G37*
G36*
X340360D02*
X337488Y520717D01*
X334813Y519608D01*
X332515Y517845D01*
X330751Y515547D01*
X329643Y512872D01*
X329265Y510000D01*
Y506000D01*
X329643Y503128D01*
X330751Y500452D01*
X332515Y498155D01*
X334813Y496391D01*
X337488Y495283D01*
X340360Y494905D01*
X343232Y495283D01*
X345908Y496391D01*
X348205Y498155D01*
X349968Y500452D01*
X351077Y503128D01*
X351455Y506000D01*
Y510000D01*
X351077Y512872D01*
X349968Y515547D01*
X348205Y517845D01*
X345908Y519608D01*
X343232Y520717D01*
X340360Y521095D01*
D02*
G37*
G36*
X76200Y397679D02*
X73198Y397284D01*
X70400Y396125D01*
X67998Y394282D01*
X66155Y391880D01*
X64996Y389082D01*
X64601Y386080D01*
X64996Y383078D01*
X66155Y380280D01*
X67998Y377878D01*
X70400Y376035D01*
X73198Y374876D01*
X76200Y374481D01*
X79202Y374876D01*
X82000Y376035D01*
X83716Y377352D01*
X85116Y376825D01*
X85348Y375659D01*
X86674Y373674D01*
X86922Y373509D01*
Y325491D01*
X86674Y325326D01*
X85348Y323341D01*
X84882Y321000D01*
X85348Y318659D01*
X86674Y316674D01*
X88659Y315348D01*
X91000Y314883D01*
X92652Y315211D01*
X93922Y314325D01*
Y273000D01*
X93922Y273000D01*
X94232Y271439D01*
X95034Y270240D01*
X95348Y268659D01*
X96674Y266674D01*
X98659Y265348D01*
X101000Y264883D01*
X103341Y265348D01*
X105326Y266674D01*
X106652Y268659D01*
X107118Y271000D01*
X106652Y273341D01*
X105326Y275326D01*
X103341Y276652D01*
X102078Y276903D01*
Y365509D01*
X102326Y365674D01*
X103652Y367659D01*
X104117Y370000D01*
X103652Y372341D01*
X102326Y374326D01*
X100341Y375652D01*
X98037Y376110D01*
X97687Y376206D01*
X96914Y376978D01*
X97118Y378000D01*
X96652Y380341D01*
X95326Y382326D01*
X93341Y383652D01*
X91000Y384118D01*
X88763Y383673D01*
X88589Y383705D01*
X87586Y384463D01*
X87799Y386080D01*
X87404Y389082D01*
X86245Y391880D01*
X84402Y394282D01*
X82000Y396125D01*
X79202Y397284D01*
X76200Y397679D01*
D02*
G37*
G36*
X327000Y274918D02*
X324659Y274452D01*
X322674Y273126D01*
X321348Y271141D01*
X320882Y268800D01*
X321348Y266459D01*
X322674Y264474D01*
X322922Y264309D01*
Y213805D01*
X321783Y213243D01*
X321398Y213538D01*
X318722Y214647D01*
X315850Y215025D01*
X312978Y214647D01*
X310303Y213538D01*
X309217Y212706D01*
X308078Y213267D01*
Y234296D01*
X308326Y234461D01*
X309652Y236446D01*
X310117Y238787D01*
X309652Y241128D01*
X308326Y243113D01*
X306341Y244439D01*
X304000Y244904D01*
X301659Y244439D01*
X299674Y243113D01*
X298348Y241128D01*
X297882Y238787D01*
X298348Y236446D01*
X299674Y234461D01*
X299922Y234296D01*
Y211631D01*
X298719Y211223D01*
X298295Y211775D01*
X295998Y213538D01*
X293322Y214647D01*
X290450Y215025D01*
X287578Y214647D01*
X284902Y213538D01*
X282605Y211775D01*
X280842Y209478D01*
X279733Y206802D01*
X279355Y203930D01*
Y199930D01*
X279733Y197058D01*
X279756Y197003D01*
X277831Y195078D01*
X247500D01*
X247500Y195078D01*
X245939Y194768D01*
X244616Y193884D01*
X244616Y193884D01*
X242292Y191560D01*
X242000Y191618D01*
X239659Y191152D01*
X237674Y189826D01*
X236348Y187841D01*
X235882Y185500D01*
X236348Y183159D01*
X237674Y181174D01*
X239659Y179848D01*
X242000Y179382D01*
X244341Y179848D01*
X246326Y181174D01*
X247652Y183159D01*
X248118Y185500D01*
X248060Y185792D01*
X249189Y186922D01*
X279520D01*
X279520Y186922D01*
X281081Y187232D01*
X282404Y188116D01*
X284736Y190449D01*
X284902Y190322D01*
X287578Y189213D01*
X290450Y188835D01*
X293322Y189213D01*
X295998Y190322D01*
X298295Y192085D01*
X298719Y192637D01*
X299922Y192229D01*
Y143771D01*
X299674Y143606D01*
X298348Y141621D01*
X297882Y139280D01*
X298302Y137171D01*
X297711Y136601D01*
X297266Y136365D01*
X295998Y137338D01*
X293322Y138447D01*
X290450Y138825D01*
X287578Y138447D01*
X284902Y137338D01*
X282605Y135575D01*
X280842Y133278D01*
X279733Y130602D01*
X279355Y127730D01*
Y123730D01*
X279733Y120858D01*
X280842Y118182D01*
X282605Y115885D01*
X284902Y114122D01*
X287578Y113013D01*
X290450Y112635D01*
X293322Y113013D01*
X295998Y114122D01*
X298295Y115885D01*
X300058Y118182D01*
X301167Y120858D01*
X301545Y123730D01*
Y127730D01*
X301167Y130602D01*
X300573Y132035D01*
X301294Y133612D01*
X301552Y133700D01*
X301659Y133628D01*
X304000Y133162D01*
X304893Y133340D01*
X305806Y132227D01*
X305133Y130602D01*
X304755Y127730D01*
Y123730D01*
X305133Y120858D01*
X306241Y118182D01*
X308005Y115885D01*
X310303Y114122D01*
X312978Y113013D01*
X315850Y112635D01*
X318722Y113013D01*
X321398Y114122D01*
X323695Y115885D01*
X325458Y118182D01*
X326567Y120858D01*
X326945Y123730D01*
Y127730D01*
X326567Y130602D01*
X326544Y130656D01*
X329884Y133996D01*
X329884Y133996D01*
X330768Y135319D01*
X331078Y136880D01*
Y193030D01*
X332281Y193438D01*
X332377Y193424D01*
X333405Y192085D01*
X335703Y190322D01*
X338378Y189213D01*
X341250Y188835D01*
X344122Y189213D01*
X346797Y190322D01*
X349095Y192085D01*
X350858Y194382D01*
X351967Y197058D01*
X352345Y199930D01*
Y203930D01*
X351967Y206802D01*
X350858Y209478D01*
X349095Y211775D01*
X346797Y213538D01*
X344122Y214647D01*
X341250Y215025D01*
X338378Y214647D01*
X335703Y213538D01*
X333405Y211775D01*
X332377Y210436D01*
X332281Y210422D01*
X331078Y210830D01*
Y264309D01*
X331326Y264474D01*
X332652Y266459D01*
X333117Y268800D01*
X332652Y271141D01*
X331326Y273126D01*
X329341Y274452D01*
X327000Y274918D01*
D02*
G37*
G36*
X113000Y223118D02*
X110659Y222652D01*
X108674Y221326D01*
X107348Y219341D01*
X106882Y217000D01*
X107348Y214659D01*
X108674Y212674D01*
X110659Y211348D01*
X113000Y210882D01*
X115341Y211348D01*
X116082Y211843D01*
X122024Y205902D01*
X122042Y205852D01*
X122070Y205276D01*
X122000Y204475D01*
X121116Y203884D01*
X121116Y203884D01*
X116266Y199034D01*
X115341Y199652D01*
X113000Y200117D01*
X110659Y199652D01*
X108674Y198326D01*
X107348Y196341D01*
X106882Y194000D01*
X107348Y191659D01*
X108674Y189674D01*
X110659Y188348D01*
X113000Y187882D01*
X115341Y188348D01*
X117326Y189674D01*
X117566Y190034D01*
X118561Y190232D01*
X119884Y191116D01*
X125689Y196922D01*
X154509D01*
X154674Y196674D01*
X156659Y195348D01*
X159000Y194883D01*
X161341Y195348D01*
X163326Y196674D01*
X164652Y198659D01*
X165118Y201000D01*
X164914Y202022D01*
X165686Y202794D01*
X166036Y202890D01*
X167601Y203201D01*
X168365Y202058D01*
X168102Y201664D01*
X167636Y199323D01*
X168102Y196982D01*
X169428Y194997D01*
X171412Y193671D01*
X173753Y193205D01*
X176094Y193671D01*
X176161Y193715D01*
X200323D01*
X202469Y194142D01*
X204288Y195357D01*
X210263Y201333D01*
X210341Y201348D01*
X212326Y202674D01*
X213652Y204659D01*
X214118Y207000D01*
X213652Y209341D01*
X212326Y211326D01*
X210341Y212652D01*
X208000Y213118D01*
X205659Y212652D01*
X203674Y211326D01*
X202348Y209341D01*
X202333Y209263D01*
X198000Y204930D01*
X176161D01*
X176094Y204974D01*
X173753Y205440D01*
X172152Y205122D01*
X171388Y206265D01*
X171652Y206659D01*
X172118Y209000D01*
X171652Y211341D01*
X170326Y213326D01*
X168341Y214652D01*
X166000Y215118D01*
X163659Y214652D01*
X161674Y213326D01*
X161304Y212772D01*
X126689D01*
X119577Y219884D01*
X118254Y220768D01*
X117613Y220895D01*
X117326Y221326D01*
X115341Y222652D01*
X113000Y223118D01*
D02*
G37*
G36*
X544450Y215025D02*
X541578Y214647D01*
X538903Y213538D01*
X536605Y211775D01*
X534841Y209478D01*
X533733Y206802D01*
X533355Y203930D01*
Y199930D01*
X533733Y197058D01*
X534841Y194382D01*
X536605Y192085D01*
X538903Y190322D01*
X541578Y189213D01*
X544450Y188835D01*
X547322Y189213D01*
X549997Y190322D01*
X552295Y192085D01*
X554058Y194382D01*
X555167Y197058D01*
X555545Y199930D01*
Y203930D01*
X555167Y206802D01*
X554058Y209478D01*
X552295Y211775D01*
X549997Y213538D01*
X547322Y214647D01*
X544450Y215025D01*
D02*
G37*
G36*
X519050D02*
X516178Y214647D01*
X513503Y213538D01*
X511205Y211775D01*
X509441Y209478D01*
X508333Y206802D01*
X507955Y203930D01*
Y199930D01*
X508333Y197058D01*
X509441Y194382D01*
X511205Y192085D01*
X513503Y190322D01*
X516178Y189213D01*
X519050Y188835D01*
X521922Y189213D01*
X524598Y190322D01*
X526895Y192085D01*
X528658Y194382D01*
X529767Y197058D01*
X530145Y199930D01*
Y203930D01*
X529767Y206802D01*
X528658Y209478D01*
X526895Y211775D01*
X524598Y213538D01*
X521922Y214647D01*
X519050Y215025D01*
D02*
G37*
G36*
X493650D02*
X490778Y214647D01*
X488102Y213538D01*
X485805Y211775D01*
X484041Y209478D01*
X482933Y206802D01*
X482555Y203930D01*
Y199930D01*
X482933Y197058D01*
X484041Y194382D01*
X485805Y192085D01*
X488102Y190322D01*
X490778Y189213D01*
X493650Y188835D01*
X496522Y189213D01*
X499198Y190322D01*
X501495Y192085D01*
X503259Y194382D01*
X504367Y197058D01*
X504745Y199930D01*
Y203930D01*
X504367Y206802D01*
X503259Y209478D01*
X501495Y211775D01*
X499198Y213538D01*
X496522Y214647D01*
X493650Y215025D01*
D02*
G37*
G36*
X468250D02*
X465378Y214647D01*
X462702Y213538D01*
X460405Y211775D01*
X458642Y209478D01*
X457533Y206802D01*
X457155Y203930D01*
Y199930D01*
X457533Y197058D01*
X458642Y194382D01*
X460405Y192085D01*
X462702Y190322D01*
X465378Y189213D01*
X468250Y188835D01*
X471122Y189213D01*
X473797Y190322D01*
X476095Y192085D01*
X477859Y194382D01*
X478967Y197058D01*
X479345Y199930D01*
Y203930D01*
X478967Y206802D01*
X477859Y209478D01*
X476095Y211775D01*
X473797Y213538D01*
X471122Y214647D01*
X468250Y215025D01*
D02*
G37*
G36*
X417450D02*
X414578Y214647D01*
X411903Y213538D01*
X409605Y211775D01*
X407841Y209478D01*
X406733Y206802D01*
X406355Y203930D01*
Y199930D01*
X406733Y197058D01*
X407841Y194382D01*
X409605Y192085D01*
X411903Y190322D01*
X414578Y189213D01*
X417450Y188835D01*
X420322Y189213D01*
X422998Y190322D01*
X425295Y192085D01*
X427058Y194382D01*
X428167Y197058D01*
X428545Y199930D01*
Y203930D01*
X428167Y206802D01*
X427058Y209478D01*
X425295Y211775D01*
X422998Y213538D01*
X420322Y214647D01*
X417450Y215025D01*
D02*
G37*
G36*
X392050D02*
X389178Y214647D01*
X386502Y213538D01*
X384205Y211775D01*
X382441Y209478D01*
X381333Y206802D01*
X380955Y203930D01*
Y199930D01*
X381333Y197058D01*
X382441Y194382D01*
X384205Y192085D01*
X386502Y190322D01*
X389178Y189213D01*
X392050Y188835D01*
X394922Y189213D01*
X397598Y190322D01*
X399895Y192085D01*
X401659Y194382D01*
X402767Y197058D01*
X403145Y199930D01*
Y203930D01*
X402767Y206802D01*
X401659Y209478D01*
X399895Y211775D01*
X397598Y213538D01*
X394922Y214647D01*
X392050Y215025D01*
D02*
G37*
G36*
X366650D02*
X363778Y214647D01*
X361102Y213538D01*
X358805Y211775D01*
X357042Y209478D01*
X355933Y206802D01*
X355555Y203930D01*
Y199930D01*
X355933Y197058D01*
X357042Y194382D01*
X358805Y192085D01*
X361102Y190322D01*
X363778Y189213D01*
X366650Y188835D01*
X369522Y189213D01*
X372197Y190322D01*
X374495Y192085D01*
X376259Y194382D01*
X377367Y197058D01*
X377745Y199930D01*
Y203930D01*
X377367Y206802D01*
X376259Y209478D01*
X374495Y211775D01*
X372197Y213538D01*
X369522Y214647D01*
X366650Y215025D01*
D02*
G37*
G36*
X569850Y138825D02*
X566978Y138447D01*
X564302Y137338D01*
X562005Y135575D01*
X560242Y133278D01*
X559133Y130602D01*
X558755Y127730D01*
Y123730D01*
X559133Y120858D01*
X560242Y118182D01*
X562005Y115885D01*
X564302Y114122D01*
X566978Y113013D01*
X569850Y112635D01*
X572722Y113013D01*
X575397Y114122D01*
X577695Y115885D01*
X579459Y118182D01*
X580567Y120858D01*
X580945Y123730D01*
Y127730D01*
X580567Y130602D01*
X579459Y133278D01*
X577695Y135575D01*
X575397Y137338D01*
X572722Y138447D01*
X569850Y138825D01*
D02*
G37*
G36*
X544450D02*
X541578Y138447D01*
X538903Y137338D01*
X536605Y135575D01*
X534841Y133278D01*
X533733Y130602D01*
X533355Y127730D01*
Y123730D01*
X533733Y120858D01*
X534841Y118182D01*
X536605Y115885D01*
X538903Y114122D01*
X541578Y113013D01*
X544450Y112635D01*
X547322Y113013D01*
X549997Y114122D01*
X552295Y115885D01*
X554058Y118182D01*
X555167Y120858D01*
X555545Y123730D01*
Y127730D01*
X555167Y130602D01*
X554058Y133278D01*
X552295Y135575D01*
X549997Y137338D01*
X547322Y138447D01*
X544450Y138825D01*
D02*
G37*
G36*
X505826Y159059D02*
X505826Y159059D01*
X450000D01*
X448829Y158826D01*
X447837Y158163D01*
X447174Y157170D01*
X446941Y156000D01*
Y148000D01*
X447174Y146830D01*
X447837Y145837D01*
X448829Y145174D01*
X450000Y144941D01*
X450071D01*
X460142Y134871D01*
X460475Y134648D01*
X460776Y134384D01*
X460967Y134320D01*
X461134Y134207D01*
X461527Y134129D01*
X461906Y134001D01*
X462107Y134014D01*
X462305Y133975D01*
X462697Y134053D01*
X463097Y134079D01*
X463278Y134168D01*
X463476Y134207D01*
X463808Y134430D01*
X464167Y134607D01*
X464245Y134667D01*
X466177Y135467D01*
X468250Y135740D01*
X470323Y135467D01*
X472255Y134667D01*
X472533Y134453D01*
X472892Y134276D01*
X473224Y134054D01*
X473422Y134015D01*
X473603Y133926D01*
X474002Y133899D01*
X474026Y133895D01*
X474045Y133605D01*
X474135Y133424D01*
X474174Y133226D01*
X474396Y132893D01*
X474573Y132534D01*
X475187Y131735D01*
X475987Y129803D01*
X476286Y127529D01*
Y123931D01*
X475987Y121657D01*
X475187Y119725D01*
X474573Y118926D01*
X474396Y118567D01*
X474174Y118234D01*
X474135Y118036D01*
X474045Y117855D01*
X474019Y117456D01*
X473941Y117064D01*
Y85000D01*
X474174Y83829D01*
X474837Y82837D01*
X475830Y82174D01*
X477000Y81941D01*
X507000D01*
X508171Y82174D01*
X509163Y82837D01*
X509826Y83829D01*
X510059Y85000D01*
Y115496D01*
X510269Y115567D01*
X511329Y115789D01*
X513503Y114122D01*
X516178Y113013D01*
X519050Y112635D01*
X521922Y113013D01*
X524598Y114122D01*
X526895Y115885D01*
X528658Y118182D01*
X529767Y120858D01*
X530145Y123730D01*
Y127730D01*
X529767Y130602D01*
X528658Y133278D01*
X526895Y135575D01*
X524598Y137338D01*
X521922Y138447D01*
X519050Y138825D01*
X516178Y138447D01*
X513503Y137338D01*
X511329Y135670D01*
X510269Y135893D01*
X510059Y135964D01*
Y154826D01*
X510059Y154826D01*
X509826Y155996D01*
X509163Y156989D01*
X509163Y156989D01*
X507989Y158163D01*
X506996Y158826D01*
X505826Y159059D01*
D02*
G37*
G36*
X442850Y138825D02*
X439978Y138447D01*
X437303Y137338D01*
X435005Y135575D01*
X433242Y133278D01*
X432133Y130602D01*
X431755Y127730D01*
Y123730D01*
X432133Y120858D01*
X433242Y118182D01*
X435005Y115885D01*
X437303Y114122D01*
X439978Y113013D01*
X442850Y112635D01*
X445722Y113013D01*
X448397Y114122D01*
X450695Y115885D01*
X452458Y118182D01*
X453567Y120858D01*
X453945Y123730D01*
Y127730D01*
X453567Y130602D01*
X452458Y133278D01*
X450695Y135575D01*
X448397Y137338D01*
X445722Y138447D01*
X442850Y138825D01*
D02*
G37*
G36*
X417450D02*
X414578Y138447D01*
X411903Y137338D01*
X409605Y135575D01*
X407841Y133278D01*
X406733Y130602D01*
X406355Y127730D01*
Y123730D01*
X406733Y120858D01*
X407841Y118182D01*
X409605Y115885D01*
X411903Y114122D01*
X414578Y113013D01*
X417450Y112635D01*
X420322Y113013D01*
X422998Y114122D01*
X425295Y115885D01*
X427058Y118182D01*
X428167Y120858D01*
X428545Y123730D01*
Y127730D01*
X428167Y130602D01*
X427058Y133278D01*
X425295Y135575D01*
X422998Y137338D01*
X420322Y138447D01*
X417450Y138825D01*
D02*
G37*
G36*
X392050D02*
X389178Y138447D01*
X386502Y137338D01*
X384205Y135575D01*
X382441Y133278D01*
X381333Y130602D01*
X380955Y127730D01*
Y123730D01*
X381333Y120858D01*
X382441Y118182D01*
X384205Y115885D01*
X386502Y114122D01*
X389178Y113013D01*
X392050Y112635D01*
X394922Y113013D01*
X397598Y114122D01*
X399895Y115885D01*
X401659Y118182D01*
X402767Y120858D01*
X403145Y123730D01*
Y127730D01*
X402767Y130602D01*
X401659Y133278D01*
X399895Y135575D01*
X397598Y137338D01*
X394922Y138447D01*
X392050Y138825D01*
D02*
G37*
G36*
X366650D02*
X363778Y138447D01*
X361102Y137338D01*
X358805Y135575D01*
X357042Y133278D01*
X355933Y130602D01*
X355555Y127730D01*
Y123730D01*
X355933Y120858D01*
X357042Y118182D01*
X358805Y115885D01*
X361102Y114122D01*
X363778Y113013D01*
X366650Y112635D01*
X369522Y113013D01*
X372197Y114122D01*
X374495Y115885D01*
X376259Y118182D01*
X377367Y120858D01*
X377745Y123730D01*
Y127730D01*
X377367Y130602D01*
X376259Y133278D01*
X374495Y135575D01*
X372197Y137338D01*
X369522Y138447D01*
X366650Y138825D01*
D02*
G37*
G36*
X341250D02*
X338378Y138447D01*
X335703Y137338D01*
X333405Y135575D01*
X331642Y133278D01*
X330533Y130602D01*
X330155Y127730D01*
Y123730D01*
X330533Y120858D01*
X331642Y118182D01*
X333405Y115885D01*
X335703Y114122D01*
X338378Y113013D01*
X341250Y112635D01*
X344122Y113013D01*
X346797Y114122D01*
X349095Y115885D01*
X350858Y118182D01*
X351967Y120858D01*
X352345Y123730D01*
Y127730D01*
X351967Y130602D01*
X350858Y133278D01*
X349095Y135575D01*
X346797Y137338D01*
X344122Y138447D01*
X341250Y138825D01*
D02*
G37*
%LPD*%
G36*
X507000Y154826D02*
Y85000D01*
X477000D01*
Y117064D01*
X477859Y118182D01*
X478967Y120858D01*
X479345Y123730D01*
Y127730D01*
X478967Y130602D01*
X477859Y133278D01*
X477000Y134396D01*
Y136880D01*
X474395D01*
X473797Y137338D01*
X471122Y138447D01*
X468250Y138825D01*
X465378Y138447D01*
X462702Y137338D01*
X462305Y137034D01*
X451339Y148000D01*
X450000D01*
Y156000D01*
X505826D01*
X507000Y154826D01*
D02*
G37*
%LPC*%
G36*
X493650Y138825D02*
X490778Y138447D01*
X488102Y137338D01*
X485805Y135575D01*
X484041Y133278D01*
X482933Y130602D01*
X482555Y127730D01*
Y123730D01*
X482933Y120858D01*
X484041Y118182D01*
X485805Y115885D01*
X488102Y114122D01*
X490778Y113013D01*
X493650Y112635D01*
X496522Y113013D01*
X499198Y114122D01*
X501495Y115885D01*
X503259Y118182D01*
X504367Y120858D01*
X504745Y123730D01*
Y127730D01*
X504367Y130602D01*
X503259Y133278D01*
X501495Y135575D01*
X499198Y137338D01*
X496522Y138447D01*
X493650Y138825D01*
D02*
G37*
G36*
X36900Y483940D02*
X13900D01*
Y460940D01*
X36900D01*
Y483940D01*
D02*
G37*
G36*
Y397580D02*
X13900D01*
Y374580D01*
X36900D01*
Y397580D01*
D02*
G37*
G36*
X25400Y353599D02*
X22398Y353204D01*
X19600Y352045D01*
X17198Y350202D01*
X15355Y347800D01*
X14196Y345002D01*
X13801Y342000D01*
X14196Y338998D01*
X15355Y336200D01*
X17198Y333798D01*
X19600Y331955D01*
X22398Y330796D01*
X25400Y330401D01*
X28402Y330796D01*
X31200Y331955D01*
X33602Y333798D01*
X35445Y336200D01*
X36604Y338998D01*
X36999Y342000D01*
X36604Y345002D01*
X35445Y347800D01*
X33602Y350202D01*
X31200Y352045D01*
X28402Y353204D01*
X25400Y353599D01*
D02*
G37*
G36*
Y328199D02*
X22398Y327804D01*
X19600Y326645D01*
X17198Y324802D01*
X15355Y322400D01*
X14196Y319602D01*
X13801Y316600D01*
X14196Y313598D01*
X15355Y310800D01*
X17198Y308398D01*
X19600Y306555D01*
X22398Y305396D01*
X25400Y305001D01*
X28402Y305396D01*
X31200Y306555D01*
X33602Y308398D01*
X35445Y310800D01*
X36604Y313598D01*
X36999Y316600D01*
X36604Y319602D01*
X35445Y322400D01*
X33602Y324802D01*
X31200Y326645D01*
X28402Y327804D01*
X25400Y328199D01*
D02*
G37*
G36*
X28395Y243057D02*
X15595D01*
X13872Y242830D01*
X12266Y242165D01*
X10888Y241107D01*
X9830Y239729D01*
X9165Y238123D01*
X8938Y236400D01*
Y231600D01*
X9165Y229877D01*
X9830Y228272D01*
X10888Y226893D01*
X12266Y225835D01*
X13872Y225170D01*
X15595Y224943D01*
X28395D01*
X30118Y225170D01*
X31723Y225835D01*
X33102Y226893D01*
X34160Y228272D01*
X34825Y229877D01*
X35052Y231600D01*
Y236400D01*
X34825Y238123D01*
X34160Y239729D01*
X33102Y241107D01*
X31723Y242165D01*
X30118Y242830D01*
X28395Y243057D01*
D02*
G37*
G36*
Y177057D02*
X15595D01*
X13872Y176830D01*
X12266Y176165D01*
X10888Y175107D01*
X9830Y173728D01*
X9165Y172123D01*
X8938Y170400D01*
Y165600D01*
X9165Y163877D01*
X9830Y162271D01*
X10888Y160893D01*
X12266Y159835D01*
X13872Y159170D01*
X15595Y158943D01*
X28395D01*
X30118Y159170D01*
X31723Y159835D01*
X33102Y160893D01*
X34160Y162271D01*
X34825Y163877D01*
X35052Y165600D01*
Y170400D01*
X34825Y172123D01*
X34160Y173728D01*
X33102Y175107D01*
X31723Y176165D01*
X30118Y176830D01*
X28395Y177057D01*
D02*
G37*
G36*
X519000Y38400D02*
X497000D01*
Y12400D01*
X519000D01*
Y38400D01*
D02*
G37*
G36*
X584200Y38495D02*
X581328Y38117D01*
X578652Y37009D01*
X576355Y35245D01*
X574591Y32947D01*
X573483Y30272D01*
X573105Y27400D01*
Y23400D01*
X573483Y20528D01*
X574591Y17852D01*
X576355Y15555D01*
X578652Y13792D01*
X581328Y12683D01*
X584200Y12305D01*
X587072Y12683D01*
X589748Y13792D01*
X592045Y15555D01*
X593809Y17852D01*
X594917Y20528D01*
X595295Y23400D01*
Y27400D01*
X594917Y30272D01*
X593809Y32947D01*
X592045Y35245D01*
X589748Y37009D01*
X587072Y38117D01*
X584200Y38495D01*
D02*
G37*
G36*
X558800D02*
X555928Y38117D01*
X553252Y37009D01*
X550955Y35245D01*
X549192Y32947D01*
X548083Y30272D01*
X547705Y27400D01*
Y23400D01*
X548083Y20528D01*
X549192Y17852D01*
X550955Y15555D01*
X553252Y13792D01*
X555928Y12683D01*
X558800Y12305D01*
X561672Y12683D01*
X564347Y13792D01*
X566645Y15555D01*
X568409Y17852D01*
X569517Y20528D01*
X569895Y23400D01*
Y27400D01*
X569517Y30272D01*
X568409Y32947D01*
X566645Y35245D01*
X564347Y37009D01*
X561672Y38117D01*
X558800Y38495D01*
D02*
G37*
G36*
X533400D02*
X530528Y38117D01*
X527853Y37009D01*
X525555Y35245D01*
X523792Y32947D01*
X522683Y30272D01*
X522305Y27400D01*
Y23400D01*
X522683Y20528D01*
X523792Y17852D01*
X525555Y15555D01*
X527853Y13792D01*
X530528Y12683D01*
X533400Y12305D01*
X536272Y12683D01*
X538947Y13792D01*
X541245Y15555D01*
X543008Y17852D01*
X544117Y20528D01*
X544495Y23400D01*
Y27400D01*
X544117Y30272D01*
X543008Y32947D01*
X541245Y35245D01*
X538947Y37009D01*
X536272Y38117D01*
X533400Y38495D01*
D02*
G37*
G36*
X457200D02*
X454328Y38117D01*
X451652Y37009D01*
X449355Y35245D01*
X447592Y32947D01*
X446483Y30272D01*
X446105Y27400D01*
Y23400D01*
X446483Y20528D01*
X447592Y17852D01*
X449355Y15555D01*
X451652Y13792D01*
X454328Y12683D01*
X457200Y12305D01*
X460072Y12683D01*
X462747Y13792D01*
X465045Y15555D01*
X466809Y17852D01*
X467917Y20528D01*
X468295Y23400D01*
Y27400D01*
X467917Y30272D01*
X466809Y32947D01*
X465045Y35245D01*
X462747Y37009D01*
X460072Y38117D01*
X457200Y38495D01*
D02*
G37*
G36*
X431800D02*
X428928Y38117D01*
X426253Y37009D01*
X423955Y35245D01*
X422192Y32947D01*
X421083Y30272D01*
X420705Y27400D01*
Y23400D01*
X421083Y20528D01*
X422192Y17852D01*
X423955Y15555D01*
X426253Y13792D01*
X428928Y12683D01*
X431800Y12305D01*
X434672Y12683D01*
X437347Y13792D01*
X439645Y15555D01*
X441409Y17852D01*
X442517Y20528D01*
X442895Y23400D01*
Y27400D01*
X442517Y30272D01*
X441409Y32947D01*
X439645Y35245D01*
X437347Y37009D01*
X434672Y38117D01*
X431800Y38495D01*
D02*
G37*
G36*
X148000Y431695D02*
X144000D01*
X141128Y431317D01*
X138453Y430209D01*
X136155Y428445D01*
X134391Y426147D01*
X133283Y423472D01*
X132905Y420600D01*
X133283Y417728D01*
X134391Y415053D01*
X136155Y412755D01*
X138453Y410992D01*
X141128Y409883D01*
X144000Y409505D01*
X148000D01*
X150872Y409883D01*
X153547Y410992D01*
X155845Y412755D01*
X157608Y415053D01*
X158717Y417728D01*
X159095Y420600D01*
X158717Y423472D01*
X157608Y426147D01*
X155845Y428445D01*
X153547Y430209D01*
X150872Y431317D01*
X148000Y431695D01*
D02*
G37*
G36*
Y406295D02*
X144000D01*
X141128Y405917D01*
X138453Y404809D01*
X136155Y403045D01*
X134391Y400747D01*
X133283Y398072D01*
X132905Y395200D01*
X133283Y392328D01*
X134391Y389653D01*
X136155Y387355D01*
X138453Y385592D01*
X141128Y384483D01*
X144000Y384105D01*
X148000D01*
X150872Y384483D01*
X153547Y385592D01*
X155845Y387355D01*
X157608Y389653D01*
X158717Y392328D01*
X159095Y395200D01*
X158717Y398072D01*
X157608Y400747D01*
X155845Y403045D01*
X153547Y404809D01*
X150872Y405917D01*
X148000Y406295D01*
D02*
G37*
G36*
X237500Y30988D02*
X234237Y30558D01*
X231196Y29299D01*
X228585Y27295D01*
X226581Y24684D01*
X225322Y21643D01*
X224892Y18380D01*
X225322Y15117D01*
X226581Y12076D01*
X228585Y9465D01*
X231196Y7461D01*
X234237Y6202D01*
X237500Y5772D01*
X240763Y6202D01*
X243804Y7461D01*
X246415Y9465D01*
X248419Y12076D01*
X249678Y15117D01*
X250108Y18380D01*
X249678Y21643D01*
X248419Y24684D01*
X246415Y27295D01*
X243804Y29299D01*
X240763Y30558D01*
X237500Y30988D01*
D02*
G37*
%LPD*%
D10*
X325500Y416250D02*
X559750D01*
X560000Y416000D01*
X324000Y403750D02*
X546750D01*
X547000Y404000D01*
X327000Y209043D02*
Y268800D01*
X311422Y508000D02*
X314960D01*
X288422Y485000D02*
X311422Y508000D01*
X277500Y485000D02*
X288422D01*
X267042Y466500D02*
X300178D01*
X260360Y461000D02*
X302726D01*
X258042Y475500D02*
X267042Y466500D01*
X300178D02*
X304178Y470500D01*
X213360Y508000D02*
X260360Y461000D01*
X302726D02*
X306226Y464500D01*
X242000Y185500D02*
X247500Y191000D01*
X279520D01*
X290450Y201930D01*
X601500Y327885D02*
Y453862D01*
X590862Y464500D02*
X601500Y453862D01*
X306226Y464500D02*
X590862D01*
X643000Y153000D02*
Y293456D01*
X620650Y130650D02*
X643000Y153000D01*
X620650Y125730D02*
Y130650D01*
X601500Y327885D02*
X638000Y291385D01*
Y168480D02*
Y291385D01*
X611500Y324956D02*
X643000Y293456D01*
X619000Y329000D02*
X648000Y300000D01*
Y210000D02*
Y300000D01*
X311102Y441500D02*
X322102Y430500D01*
X244479Y441500D02*
X311102D01*
X563222Y404000D02*
X573000D01*
X543222Y384000D02*
X563222Y404000D01*
X146000Y446000D02*
Y450000D01*
X102640Y446000D02*
X146000D01*
X76200Y472440D02*
X102640Y446000D01*
X146000Y450000D02*
X154000Y458000D01*
X227979D01*
X244479Y441500D01*
X322102Y430500D02*
X557500D01*
X573000Y415000D01*
X217500Y384000D02*
X543222D01*
X611500Y324956D02*
Y456500D01*
X597500Y470500D02*
X611500Y456500D01*
X304178Y470500D02*
X597500D01*
X648000Y210000D02*
X670000Y188000D01*
X595250Y125730D02*
X638000Y168480D01*
X213000Y388500D02*
X217500Y384000D01*
X253000Y475500D02*
X258042D01*
X253000D02*
Y500557D01*
X619000Y329000D02*
Y444000D01*
X91000Y321000D02*
Y378000D01*
Y320000D02*
Y321000D01*
X100000Y271000D02*
X101000D01*
X98000Y273000D02*
X100000Y271000D01*
X98000Y273000D02*
Y370000D01*
X125000Y208693D02*
X166000D01*
X166000Y209000D02*
X166000Y209000D01*
X124000Y201000D02*
X159000D01*
X117000Y194000D02*
X124000Y201000D01*
X113000Y194000D02*
X117000D01*
X116693Y217000D02*
X125000Y208693D01*
X113000Y217000D02*
X116693D01*
X252660Y500897D02*
X253000Y500557D01*
X252660Y500897D02*
Y513340D01*
X242000Y524000D02*
X252660Y513340D01*
X670000Y159000D02*
Y188000D01*
X619000Y444000D02*
X625000Y450000D01*
X203960Y524000D02*
X242000D01*
X187960Y508000D02*
X203960Y524000D01*
X315850Y125730D02*
X327000Y136880D01*
Y194817D01*
X327350Y195167D01*
Y208693D01*
X327000Y209043D02*
X327350Y208693D01*
X304000Y139280D02*
Y238787D01*
D11*
X200323Y199323D02*
X208000Y207000D01*
X173753Y199323D02*
X200323D01*
X591000Y183000D02*
X605250D01*
X582750Y214775D02*
Y222025D01*
Y191250D02*
Y214775D01*
Y191250D02*
X591000Y183000D01*
X582750Y214775D02*
X583000Y215025D01*
D12*
X87000Y107000D02*
Y112000D01*
X89000Y114000D01*
X86000Y117000D02*
X89000Y114000D01*
D14*
X237500Y83380D02*
D03*
D67*
X600750Y262500D02*
D03*
Y307500D02*
D03*
X665750D02*
D03*
X192500Y83380D02*
D03*
Y18380D02*
D03*
X237500D02*
D03*
D68*
X665750Y262500D02*
D03*
D75*
X583000Y391142D02*
Y443000D01*
Y391142D02*
X584000Y390142D01*
Y381858D02*
Y390142D01*
X583000Y380858D02*
X584000Y381858D01*
X583000Y215025D02*
Y380858D01*
X574000Y452000D02*
X583000Y443000D01*
X246000Y452000D02*
X574000D01*
X217000Y481000D02*
X246000Y452000D01*
D76*
X21995Y168000D02*
D03*
Y234000D02*
D03*
D77*
X152400Y508000D02*
D03*
D78*
X114200Y83000D02*
D03*
X139600D02*
D03*
X391160Y508000D02*
D03*
X365760D02*
D03*
X340360D02*
D03*
X314960D02*
D03*
X289560D02*
D03*
X264160D02*
D03*
X238760D02*
D03*
X213360D02*
D03*
X187960D02*
D03*
X457200D02*
D03*
X482600D02*
D03*
X508000D02*
D03*
X533400D02*
D03*
X558800D02*
D03*
X584200D02*
D03*
X609600D02*
D03*
X635000Y25400D02*
D03*
X609600D02*
D03*
X584200D02*
D03*
X558800D02*
D03*
X533400D02*
D03*
X457200D02*
D03*
X431800D02*
D03*
X406400D02*
D03*
X381000D02*
D03*
X355600D02*
D03*
X330200D02*
D03*
X304800D02*
D03*
X595250Y201930D02*
D03*
X569850D02*
D03*
X544450D02*
D03*
X519050D02*
D03*
X493650D02*
D03*
X468250D02*
D03*
X442850D02*
D03*
X417450D02*
D03*
X392050D02*
D03*
X366650D02*
D03*
X341250D02*
D03*
X315850D02*
D03*
X290450D02*
D03*
X620650Y125730D02*
D03*
X595250D02*
D03*
X569850D02*
D03*
X544450D02*
D03*
X519050D02*
D03*
X493650D02*
D03*
X468250D02*
D03*
X442850D02*
D03*
X417450D02*
D03*
X392050D02*
D03*
X366650D02*
D03*
X341250D02*
D03*
X315850D02*
D03*
X290450D02*
D03*
D79*
X165000Y83000D02*
D03*
X416560Y508000D02*
D03*
X635000D02*
D03*
X508000Y25400D02*
D03*
X279400D02*
D03*
X620650Y201930D02*
D03*
D80*
X146000Y446000D02*
D03*
X662000Y469000D02*
D03*
D81*
X146000Y420600D02*
D03*
Y395200D02*
D03*
Y369800D02*
D03*
X662000Y418200D02*
D03*
Y443600D02*
D03*
D82*
X25400Y316600D02*
D03*
X50800D02*
D03*
X25400Y342000D02*
D03*
X76200Y411480D02*
D03*
X50800D02*
D03*
X25400D02*
D03*
X76200Y386080D02*
D03*
X50800D02*
D03*
X76200Y497840D02*
D03*
X50800D02*
D03*
X25400D02*
D03*
X76200Y472440D02*
D03*
X50800D02*
D03*
D83*
Y342000D02*
D03*
X25400Y386080D02*
D03*
Y472440D02*
D03*
D84*
X20000Y22000D02*
D03*
X21000Y125000D02*
D03*
D85*
X139700Y25400D02*
D03*
X660400Y76200D02*
D03*
Y355600D02*
D03*
D86*
X314250Y424500D02*
D03*
X325500Y416250D02*
D03*
X324000Y403750D02*
D03*
X475750Y250000D02*
D03*
X59000Y221250D02*
D03*
X199000Y226000D02*
D03*
X462250Y86500D02*
D03*
X113250Y155000D02*
D03*
X106652Y162271D02*
D03*
X113250Y162000D02*
D03*
X120756D02*
D03*
X147000Y174000D02*
D03*
X135600Y183000D02*
D03*
X147000Y183570D02*
D03*
X157000Y184000D02*
D03*
X87000Y115663D02*
D03*
Y106500D02*
D03*
X402000Y479000D02*
D03*
X414000D02*
D03*
X402000Y486000D02*
D03*
X414000D02*
D03*
Y375000D02*
D03*
X402000D02*
D03*
X414000Y367000D02*
D03*
X327000Y268800D02*
D03*
X277500Y485000D02*
D03*
X242000Y185500D02*
D03*
X613000Y72000D02*
D03*
Y64000D02*
D03*
X175000Y415250D02*
D03*
X324000Y66000D02*
D03*
X109000Y406250D02*
D03*
X114200Y414000D02*
D03*
X61000Y438566D02*
D03*
X173753Y199323D02*
D03*
X573000Y415000D02*
D03*
Y404000D02*
D03*
X605250Y183000D02*
D03*
X373000Y68500D02*
D03*
X304000Y82000D02*
D03*
X243000Y134034D02*
D03*
X76500Y184000D02*
D03*
X629453Y184548D02*
D03*
X213000Y388500D02*
D03*
X210000Y434000D02*
D03*
X58566Y215000D02*
D03*
X182000Y288000D02*
D03*
X449000Y217000D02*
D03*
X78000Y293000D02*
D03*
X402000Y367000D02*
D03*
X201800Y410200D02*
D03*
X393000Y252000D02*
D03*
X107000D02*
D03*
X138000Y227000D02*
D03*
X150000Y273000D02*
D03*
X177000Y210000D02*
D03*
X235000Y203000D02*
D03*
X270000Y235000D02*
D03*
X220000Y249000D02*
D03*
Y335000D02*
D03*
X274000Y342000D02*
D03*
X58000Y522000D02*
D03*
X574000Y386000D02*
D03*
X629000Y175000D02*
D03*
X680000Y127000D02*
D03*
X469000Y107000D02*
D03*
X394000Y85000D02*
D03*
X404000Y111660D02*
D03*
X198500Y148000D02*
D03*
X208000Y141000D02*
D03*
X161000Y134000D02*
D03*
X77000Y248500D02*
D03*
X77500Y227500D02*
D03*
X225000Y447500D02*
D03*
X122000Y409000D02*
D03*
X9000Y289000D02*
D03*
X39500Y283500D02*
D03*
X141000Y138000D02*
D03*
X283000Y66000D02*
D03*
X320000Y72000D02*
D03*
X443000Y41000D02*
D03*
X462000D02*
D03*
X91000Y321000D02*
D03*
Y378000D02*
D03*
X101000Y271000D02*
D03*
X98000Y370000D02*
D03*
X482600Y92000D02*
D03*
X453500Y151500D02*
D03*
X208000Y207000D02*
D03*
X166000Y209000D02*
D03*
X159000Y201000D02*
D03*
X113000Y194000D02*
D03*
Y217000D02*
D03*
X217000Y481000D02*
D03*
X547000Y404000D02*
D03*
X560000Y416000D02*
D03*
X670000Y159000D02*
D03*
X625000Y450000D02*
D03*
X304000Y139280D02*
D03*
Y238787D02*
D03*
M02*
