G04*
G04 #@! TF.GenerationSoftware,Altium Limited,Altium Designer,18.1.9 (240)*
G04*
G04 Layer_Color=8388736*
%FSLAX44Y44*%
%MOMM*%
G71*
G01*
G75*
%ADD87C,1.0160*%
%ADD88C,0.2540*%
%ADD89C,0.7000*%
%ADD90C,0.1524*%
D87*
X155700Y25400D02*
G03*
X155700Y25400I-16000J0D01*
G01*
X676400Y76200D02*
G03*
X676400Y76200I-16000J0D01*
G01*
Y355600D02*
G03*
X676400Y355600I-16000J0D01*
G01*
X168400Y508000D02*
G03*
X168400Y508000I-16000J0D01*
G01*
X0Y0D02*
X685750D01*
Y533500D01*
X250D02*
X685750D01*
X0Y533250D02*
X250Y533500D01*
X0Y0D02*
Y533250D01*
D88*
X685750Y-78740D02*
Y-7620D01*
X0Y-78740D02*
Y-7620D01*
X370806Y-76200D02*
X685750D01*
X0D02*
X306816D01*
X670510Y-71120D02*
X685750Y-76200D01*
X670510Y-81280D02*
X685750Y-76200D01*
X0D02*
X15240Y-81280D01*
X0Y-76200D02*
X15240Y-71120D01*
X-78740Y533500D02*
X-7370D01*
X-78740Y0D02*
X-7620D01*
X-76200Y293411D02*
Y533500D01*
Y0D02*
Y231961D01*
X-81280Y518260D02*
X-76200Y533500D01*
X-71120Y518260D01*
X-76200Y0D02*
X-71120Y15240D01*
X-81280D02*
X-76200Y0D01*
D89*
X-416674Y-230843D02*
X-422506Y-225011D01*
X-434169D01*
X-440000Y-230843D01*
Y-236674D01*
X-434169Y-242506D01*
X-422506D01*
X-416674Y-248337D01*
Y-254168D01*
X-422506Y-260000D01*
X-434169D01*
X-440000Y-254168D01*
X-381685Y-236674D02*
X-399180D01*
X-405011Y-242506D01*
Y-254168D01*
X-399180Y-260000D01*
X-381685D01*
X-364191Y-236674D02*
X-352528D01*
X-346697Y-242506D01*
Y-260000D01*
X-364191D01*
X-370023Y-254168D01*
X-364191Y-248337D01*
X-346697D01*
X-335034Y-260000D02*
X-323371D01*
X-329202D01*
Y-225011D01*
X-335034D01*
X-288382Y-260000D02*
X-300045D01*
X-305877Y-254168D01*
Y-242506D01*
X-300045Y-236674D01*
X-288382D01*
X-282551Y-242506D01*
Y-248337D01*
X-305877D01*
X-235899Y-236674D02*
X-230068D01*
Y-242506D01*
X-235899D01*
Y-236674D01*
Y-254168D02*
X-230068D01*
Y-260000D01*
X-235899D01*
Y-254168D01*
X-171753Y-260000D02*
X-160090D01*
X-165922D01*
Y-225011D01*
X-171753Y-230843D01*
X-142596Y-236674D02*
X-136765D01*
Y-242506D01*
X-142596D01*
Y-236674D01*
Y-254168D02*
X-136765D01*
Y-260000D01*
X-142596D01*
Y-254168D01*
X-113439Y-260000D02*
X-101776D01*
X-107607D01*
Y-225011D01*
X-113439Y-230843D01*
X-460000Y-145011D02*
Y-174168D01*
X-454169Y-180000D01*
X-442506D01*
X-436674Y-174168D01*
Y-145011D01*
X-425011Y-180000D02*
Y-156674D01*
X-407517D01*
X-401685Y-162506D01*
Y-180000D01*
X-390023D02*
X-378360D01*
X-384191D01*
Y-156674D01*
X-390023D01*
X-355034Y-150843D02*
Y-156674D01*
X-360865D01*
X-349202D01*
X-355034D01*
Y-174168D01*
X-349202Y-180000D01*
X-331708D02*
X-314214D01*
X-308382Y-174168D01*
X-314214Y-168337D01*
X-325877D01*
X-331708Y-162506D01*
X-325877Y-156674D01*
X-308382D01*
X-261731D02*
X-255899D01*
Y-162506D01*
X-261731D01*
Y-156674D01*
Y-174168D02*
X-255899D01*
Y-180000D01*
X-261731D01*
Y-174168D01*
X-197585Y-180000D02*
Y-156674D01*
X-191753D01*
X-185922Y-162506D01*
Y-180000D01*
Y-162506D01*
X-180090Y-156674D01*
X-174259Y-162506D01*
Y-180000D01*
X-162596D02*
X-150933D01*
X-156765D01*
Y-156674D01*
X-162596D01*
X-133439Y-180000D02*
X-121776D01*
X-127607D01*
Y-145011D01*
X-133439D01*
X-104282Y-180000D02*
X-86787D01*
X-80956Y-174168D01*
X-86787Y-168337D01*
X-98450D01*
X-104282Y-162506D01*
X-98450Y-156674D01*
X-80956D01*
X105831Y610000D02*
X117494D01*
X123326Y615831D01*
Y627494D01*
X117494Y633326D01*
X105831D01*
X100000Y627494D01*
Y615831D01*
X105831Y610000D01*
X140820D02*
Y639157D01*
Y627494D01*
X134989D01*
X146652D01*
X140820D01*
Y639157D01*
X146652Y644989D01*
X199135Y610000D02*
Y633326D01*
X210798Y644989D01*
X222460Y633326D01*
Y610000D01*
Y627494D01*
X199135D01*
X234123Y633326D02*
Y610000D01*
Y621663D01*
X239955Y627494D01*
X245786Y633326D01*
X251618D01*
X292438Y644989D02*
Y610000D01*
X274944D01*
X269112Y615831D01*
Y627494D01*
X274944Y633326D01*
X292438D01*
X304101D02*
Y615831D01*
X309932Y610000D01*
X327426D01*
Y633326D01*
X339090Y610000D02*
X350752D01*
X344921D01*
Y633326D01*
X339090D01*
X368247Y610000D02*
Y633326D01*
X385741D01*
X391572Y627494D01*
Y610000D01*
X409067D02*
X420730D01*
X426561Y615831D01*
Y627494D01*
X420730Y633326D01*
X409067D01*
X403235Y627494D01*
Y615831D01*
X409067Y610000D01*
X473213Y644989D02*
Y621663D01*
X484876Y610000D01*
X496539Y621663D01*
Y644989D01*
X508201Y610000D02*
X519864D01*
X514033D01*
Y644989D01*
X508201Y639157D01*
X537359Y644989D02*
X549022D01*
X543190D01*
Y610000D01*
X537359D01*
X549022D01*
X566516D02*
X578179D01*
X572347D01*
Y644989D01*
X566516Y639157D01*
X60000Y670000D02*
Y704989D01*
X71663Y693326D01*
X83326Y704989D01*
Y670000D01*
X112483D02*
X100820D01*
X94989Y675832D01*
Y687494D01*
X100820Y693326D01*
X112483D01*
X118315Y687494D01*
Y681663D01*
X94989D01*
X153303Y693326D02*
X135809D01*
X129977Y687494D01*
Y675832D01*
X135809Y670000D01*
X153303D01*
X164966Y704989D02*
Y670000D01*
Y687494D01*
X170798Y693326D01*
X182460D01*
X188292Y687494D01*
Y670000D01*
X205786Y693326D02*
X217449D01*
X223281Y687494D01*
Y670000D01*
X205786D01*
X199955Y675832D01*
X205786Y681663D01*
X223281D01*
X234944Y670000D02*
Y693326D01*
X252438D01*
X258269Y687494D01*
Y670000D01*
X269932D02*
X281595D01*
X275764D01*
Y693326D01*
X269932D01*
X322415D02*
X304921D01*
X299090Y687494D01*
Y675832D01*
X304921Y670000D01*
X322415D01*
X339910Y693326D02*
X351572D01*
X357404Y687494D01*
Y670000D01*
X339910D01*
X334078Y675832D01*
X339910Y681663D01*
X357404D01*
X369067Y670000D02*
X380730D01*
X374898D01*
Y704989D01*
X369067D01*
X433213D02*
Y670000D01*
X450707D01*
X456539Y675832D01*
Y699157D01*
X450707Y704989D01*
X433213D01*
X468201Y693326D02*
Y670000D01*
Y681663D01*
X474033Y687494D01*
X479864Y693326D01*
X485696D01*
X509022D02*
X520685D01*
X526516Y687494D01*
Y670000D01*
X509022D01*
X503190Y675832D01*
X509022Y681663D01*
X526516D01*
X538179Y693326D02*
Y675832D01*
X544010Y670000D01*
X549842Y675832D01*
X555673Y670000D01*
X561505Y675832D01*
Y693326D01*
X573168Y670000D02*
X584831D01*
X578999D01*
Y693326D01*
X573168D01*
X602325Y670000D02*
Y693326D01*
X619819D01*
X625651Y687494D01*
Y670000D01*
X648977Y658337D02*
X654808D01*
X660639Y664168D01*
Y693326D01*
X643145D01*
X637314Y687494D01*
Y675832D01*
X643145Y670000D01*
X660639D01*
D90*
X321037Y-85342D02*
X310880D01*
X321037Y-75185D01*
Y-72646D01*
X318498Y-70107D01*
X313419D01*
X310880Y-72646D01*
X326115Y-70107D02*
X336272D01*
Y-72646D01*
X326115Y-82802D01*
Y-85342D01*
X341350Y-72646D02*
X343889Y-70107D01*
X348968D01*
X351507Y-72646D01*
Y-82802D01*
X348968Y-85342D01*
X343889D01*
X341350Y-82802D01*
Y-72646D01*
X356585D02*
X359124Y-70107D01*
X364203D01*
X366742Y-72646D01*
Y-82802D01*
X364203Y-85342D01*
X359124D01*
X356585Y-82802D01*
Y-72646D01*
X-67059Y246181D02*
Y236025D01*
X-77215Y246181D01*
X-79754D01*
X-82294Y243642D01*
Y238564D01*
X-79754Y236025D01*
X-67059Y251260D02*
Y256338D01*
Y253799D01*
X-82294D01*
X-79754Y251260D01*
Y263956D02*
X-82294Y266495D01*
Y271573D01*
X-79754Y274112D01*
X-69598D01*
X-67059Y271573D01*
Y266495D01*
X-69598Y263956D01*
X-79754D01*
Y279191D02*
X-82294Y281730D01*
Y286808D01*
X-79754Y289347D01*
X-69598D01*
X-67059Y286808D01*
Y281730D01*
X-69598Y279191D01*
X-79754D01*
M02*
