G04*
G04 #@! TF.GenerationSoftware,Altium Limited,Altium Designer,18.1.9 (240)*
G04*
G04 Layer_Color=16711935*
%FSLAX44Y44*%
%MOMM*%
G71*
G01*
G75*
G04:AMPARAMS|DCode=58|XSize=2.1mm|YSize=1.3mm|CornerRadius=0.41mm|HoleSize=0mm|Usage=FLASHONLY|Rotation=0.000|XOffset=0mm|YOffset=0mm|HoleType=Round|Shape=RoundedRectangle|*
%AMROUNDEDRECTD58*
21,1,2.1000,0.4800,0,0,0.0*
21,1,1.2800,1.3000,0,0,0.0*
1,1,0.8200,0.6400,-0.2400*
1,1,0.8200,-0.6400,-0.2400*
1,1,0.8200,-0.6400,0.2400*
1,1,0.8200,0.6400,0.2400*
%
%ADD58ROUNDEDRECTD58*%
%ADD59C,2.1000*%
%ADD60R,2.1000X2.1000*%
%ADD61R,2.1000X2.1000*%
%ADD62C,3.4000*%
%ADD63O,1.8000X2.2000*%
%ADD64R,1.8000X2.2000*%
%ADD65R,2.2000X1.8000*%
%ADD66O,2.2000X1.8000*%
%ADD67C,1.9000*%
%ADD68R,1.9000X1.9000*%
%ADD69C,4.2000*%
%ADD70C,7.6000*%
%ADD71C,0.8000*%
G36*
X467173Y344687D02*
Y343675D01*
Y342663D01*
Y341651D01*
Y340639D01*
Y339627D01*
Y338615D01*
Y337603D01*
Y336591D01*
Y335579D01*
Y334567D01*
Y333555D01*
Y332543D01*
Y331530D01*
Y330518D01*
Y329506D01*
Y328494D01*
Y327482D01*
Y326470D01*
Y325458D01*
Y324446D01*
Y323434D01*
Y322422D01*
X464137D01*
Y323434D01*
Y324446D01*
Y325458D01*
Y326470D01*
Y327482D01*
Y328494D01*
Y329506D01*
Y330518D01*
Y331530D01*
Y332543D01*
Y333555D01*
Y334567D01*
Y335579D01*
Y336591D01*
Y337603D01*
Y338615D01*
Y339627D01*
Y340639D01*
Y341651D01*
Y342663D01*
Y343675D01*
Y344687D01*
Y345699D01*
X467173D01*
Y344687D01*
D02*
G37*
G36*
X469197Y361892D02*
X470209D01*
Y360880D01*
Y359868D01*
X468185D01*
Y358856D01*
X456040D01*
Y357844D01*
Y356832D01*
X455028D01*
Y355820D01*
Y354808D01*
Y353796D01*
Y352784D01*
Y351772D01*
Y350760D01*
Y349748D01*
Y348736D01*
Y347723D01*
Y346711D01*
Y345699D01*
Y344687D01*
Y343675D01*
Y342663D01*
Y341651D01*
Y340639D01*
Y339627D01*
Y338615D01*
Y337603D01*
Y336591D01*
Y335579D01*
Y334567D01*
Y333555D01*
Y332543D01*
Y331530D01*
Y330518D01*
Y329506D01*
Y328494D01*
Y327482D01*
Y326470D01*
Y325458D01*
Y324446D01*
Y323434D01*
Y322422D01*
X451992D01*
Y323434D01*
X450980D01*
Y324446D01*
Y325458D01*
Y326470D01*
Y327482D01*
Y328494D01*
Y329506D01*
Y330518D01*
Y331530D01*
Y332543D01*
Y333555D01*
Y334567D01*
Y335579D01*
Y336591D01*
Y337603D01*
Y338615D01*
Y339627D01*
Y340639D01*
Y341651D01*
Y342663D01*
Y343675D01*
Y344687D01*
Y345699D01*
Y346711D01*
Y347723D01*
Y348736D01*
Y349748D01*
Y350760D01*
Y351772D01*
Y352784D01*
Y353796D01*
Y354808D01*
Y355820D01*
Y356832D01*
Y357844D01*
X451992D01*
Y358856D01*
Y359868D01*
X453004D01*
Y360880D01*
X454016D01*
Y361892D01*
X455028D01*
Y362904D01*
X469197D01*
Y361892D01*
D02*
G37*
G36*
X441871Y344687D02*
X442883D01*
Y343675D01*
Y342663D01*
Y341651D01*
Y340639D01*
Y339627D01*
Y338615D01*
Y337603D01*
Y336591D01*
Y335579D01*
Y334567D01*
Y333555D01*
Y332543D01*
Y331530D01*
Y330518D01*
Y329506D01*
Y328494D01*
Y327482D01*
Y326470D01*
Y325458D01*
Y324446D01*
Y323434D01*
X441871D01*
Y322422D01*
X438835D01*
Y323434D01*
Y324446D01*
Y325458D01*
Y326470D01*
Y327482D01*
Y328494D01*
Y329506D01*
Y330518D01*
Y331530D01*
Y332543D01*
Y333555D01*
Y334567D01*
Y335579D01*
Y336591D01*
Y337603D01*
Y338615D01*
Y339627D01*
Y340639D01*
Y341651D01*
Y342663D01*
Y343675D01*
Y344687D01*
Y345699D01*
X441871D01*
Y344687D01*
D02*
G37*
G36*
X506643Y307241D02*
X507655D01*
Y306229D01*
Y305217D01*
X506643D01*
Y304205D01*
X485390D01*
Y305217D01*
X484378D01*
Y306229D01*
X483366D01*
Y307241D01*
X484378D01*
Y308253D01*
X506643D01*
Y307241D01*
D02*
G37*
G36*
X369003Y303193D02*
X370015D01*
Y302181D01*
X371027D01*
Y301169D01*
Y300157D01*
Y299145D01*
Y298133D01*
Y297121D01*
Y296108D01*
Y295096D01*
Y294084D01*
Y293072D01*
Y292060D01*
Y291048D01*
Y290036D01*
Y289024D01*
Y288012D01*
Y287000D01*
Y285988D01*
Y284976D01*
Y283964D01*
Y282952D01*
Y281940D01*
Y280928D01*
Y279916D01*
Y278904D01*
X365967D01*
Y279916D01*
X364955D01*
Y280928D01*
Y281940D01*
Y282952D01*
Y283964D01*
Y284976D01*
Y285988D01*
Y287000D01*
Y288012D01*
Y289024D01*
Y290036D01*
Y291048D01*
Y292060D01*
Y293072D01*
Y294084D01*
Y295096D01*
Y296108D01*
Y297121D01*
Y298133D01*
Y299145D01*
Y300157D01*
X361919D01*
Y299145D01*
Y298133D01*
Y297121D01*
Y296108D01*
Y295096D01*
Y294084D01*
Y293072D01*
Y292060D01*
Y291048D01*
Y290036D01*
Y289024D01*
Y288012D01*
Y287000D01*
Y285988D01*
Y284976D01*
Y283964D01*
Y282952D01*
Y281940D01*
Y280928D01*
Y279916D01*
Y278904D01*
X356858D01*
Y279916D01*
Y280928D01*
Y281940D01*
Y282952D01*
Y283964D01*
Y284976D01*
Y285988D01*
Y287000D01*
Y288012D01*
Y289024D01*
Y290036D01*
Y291048D01*
Y292060D01*
Y293072D01*
Y294084D01*
Y295096D01*
Y296108D01*
Y297121D01*
Y298133D01*
Y299145D01*
Y300157D01*
X353822D01*
Y299145D01*
Y298133D01*
Y297121D01*
Y296108D01*
Y295096D01*
Y294084D01*
Y293072D01*
Y292060D01*
Y291048D01*
Y290036D01*
Y289024D01*
Y288012D01*
Y287000D01*
Y285988D01*
Y284976D01*
Y283964D01*
Y282952D01*
Y281940D01*
Y280928D01*
Y279916D01*
X352810D01*
Y278904D01*
X347750D01*
Y279916D01*
Y280928D01*
Y281940D01*
Y282952D01*
Y283964D01*
Y284976D01*
Y285988D01*
Y287000D01*
Y288012D01*
Y289024D01*
Y290036D01*
Y291048D01*
Y292060D01*
Y293072D01*
Y294084D01*
Y295096D01*
Y296108D01*
Y297121D01*
Y298133D01*
Y299145D01*
Y300157D01*
Y301169D01*
Y302181D01*
X348762D01*
Y303193D01*
X349774D01*
Y304205D01*
X358883D01*
Y303193D01*
X359895D01*
Y304205D01*
X369003D01*
Y303193D01*
D02*
G37*
G36*
X422642Y305217D02*
X424666D01*
Y304205D01*
Y303193D01*
Y302181D01*
X401389D01*
Y303193D01*
X400377D01*
Y304205D01*
X401389D01*
Y305217D01*
X402401D01*
Y306229D01*
X422642D01*
Y305217D01*
D02*
G37*
G36*
X342690Y304205D02*
X343702D01*
Y303193D01*
Y302181D01*
Y301169D01*
Y300157D01*
X341678D01*
Y299145D01*
X340666D01*
Y300157D01*
X338642D01*
Y301169D01*
Y302181D01*
Y303193D01*
Y304205D01*
X339654D01*
Y305217D01*
X342690D01*
Y304205D01*
D02*
G37*
G36*
X318400Y297121D02*
Y296108D01*
Y295096D01*
Y294084D01*
Y293072D01*
Y292060D01*
Y291048D01*
Y290036D01*
Y289024D01*
Y288012D01*
Y287000D01*
Y285988D01*
Y284976D01*
Y283964D01*
Y282952D01*
Y281940D01*
Y280928D01*
Y279916D01*
Y278904D01*
X313340D01*
Y279916D01*
Y280928D01*
Y281940D01*
Y282952D01*
Y283964D01*
Y284976D01*
Y285988D01*
Y287000D01*
Y288012D01*
Y289024D01*
Y290036D01*
Y291048D01*
Y292060D01*
X312328D01*
Y293072D01*
X309292D01*
Y294084D01*
Y295096D01*
Y296108D01*
Y297121D01*
Y298133D01*
X312328D01*
Y297121D01*
X313340D01*
Y298133D01*
X318400D01*
Y297121D01*
D02*
G37*
G36*
X278930D02*
X279942D01*
Y296108D01*
Y295096D01*
Y294084D01*
X280954D01*
Y293072D01*
Y292060D01*
Y291048D01*
Y290036D01*
Y289024D01*
Y288012D01*
Y287000D01*
Y285988D01*
Y284976D01*
Y283964D01*
Y282952D01*
X279942D01*
Y281940D01*
Y280928D01*
Y279916D01*
X277918D01*
Y278904D01*
X272858D01*
Y279916D01*
X270834D01*
Y278904D01*
X267798D01*
Y279916D01*
Y280928D01*
Y281940D01*
Y282952D01*
Y283964D01*
Y284976D01*
Y285988D01*
Y287000D01*
Y288012D01*
Y289024D01*
Y290036D01*
Y291048D01*
Y292060D01*
Y293072D01*
Y294084D01*
Y295096D01*
Y296108D01*
Y297121D01*
Y298133D01*
X270834D01*
Y297121D01*
X272858D01*
Y298133D01*
X278930D01*
Y297121D01*
D02*
G37*
G36*
X387220Y307241D02*
Y306229D01*
X388232D01*
Y305217D01*
Y304205D01*
Y303193D01*
Y302181D01*
Y301169D01*
Y300157D01*
Y299145D01*
Y298133D01*
Y297121D01*
Y296108D01*
Y295096D01*
Y294084D01*
X390256D01*
Y293072D01*
X424666D01*
Y292060D01*
Y291048D01*
Y290036D01*
X423654D01*
Y289024D01*
X390256D01*
Y290036D01*
X387220D01*
Y291048D01*
X386208D01*
Y292060D01*
X385196D01*
Y293072D01*
X384184D01*
Y294084D01*
Y295096D01*
Y296108D01*
Y297121D01*
Y298133D01*
Y299145D01*
Y300157D01*
Y301169D01*
Y302181D01*
Y303193D01*
Y304205D01*
Y305217D01*
Y306229D01*
Y307241D01*
Y308253D01*
X387220D01*
Y307241D01*
D02*
G37*
G36*
X333581Y297121D02*
X334593D01*
Y296108D01*
Y295096D01*
X335605D01*
Y294084D01*
Y293072D01*
Y292060D01*
Y291048D01*
Y290036D01*
Y289024D01*
Y288012D01*
Y287000D01*
Y285988D01*
Y284976D01*
Y283964D01*
Y282952D01*
Y281940D01*
X334593D01*
Y280928D01*
Y279916D01*
X332569D01*
Y278904D01*
X323461D01*
Y279916D01*
X322449D01*
Y280928D01*
X321437D01*
Y281940D01*
Y282952D01*
Y283964D01*
Y284976D01*
Y285988D01*
Y287000D01*
X326497D01*
Y285988D01*
Y284976D01*
Y283964D01*
Y282952D01*
X329533D01*
Y283964D01*
Y284976D01*
Y285988D01*
Y287000D01*
Y288012D01*
Y289024D01*
Y290036D01*
Y291048D01*
Y292060D01*
Y293072D01*
Y294084D01*
X328521D01*
Y295096D01*
X327509D01*
Y294084D01*
X326497D01*
Y293072D01*
Y292060D01*
Y291048D01*
Y290036D01*
X321437D01*
Y291048D01*
Y292060D01*
Y293072D01*
Y294084D01*
Y295096D01*
Y296108D01*
X322449D01*
Y297121D01*
X323461D01*
Y298133D01*
X333581D01*
Y297121D01*
D02*
G37*
G36*
X226303Y303193D02*
X227315D01*
Y302181D01*
Y301169D01*
Y300157D01*
Y299145D01*
Y298133D01*
Y297121D01*
Y296108D01*
Y295096D01*
Y294084D01*
Y293072D01*
Y292060D01*
Y291048D01*
Y290036D01*
Y289024D01*
Y288012D01*
Y287000D01*
Y285988D01*
Y284976D01*
Y283964D01*
Y282952D01*
Y281940D01*
Y280928D01*
X226303D01*
Y279916D01*
X225291D01*
Y278904D01*
X216182D01*
Y279916D01*
X215170D01*
Y280928D01*
X214158D01*
Y281940D01*
Y282952D01*
Y283964D01*
Y284976D01*
Y285988D01*
Y287000D01*
X218207D01*
Y285988D01*
Y284976D01*
Y283964D01*
Y282952D01*
X223267D01*
Y283964D01*
Y284976D01*
Y285988D01*
Y287000D01*
Y288012D01*
Y289024D01*
Y290036D01*
Y291048D01*
Y292060D01*
Y293072D01*
Y294084D01*
Y295096D01*
Y296108D01*
Y297121D01*
Y298133D01*
Y299145D01*
Y300157D01*
X222255D01*
Y301169D01*
X219219D01*
Y300157D01*
X218207D01*
Y299145D01*
Y298133D01*
Y297121D01*
X214158D01*
Y298133D01*
Y299145D01*
Y300157D01*
Y301169D01*
Y302181D01*
X215170D01*
Y303193D01*
X216182D01*
Y304205D01*
X226303D01*
Y303193D01*
D02*
G37*
G36*
X506643Y281940D02*
X507655D01*
Y280928D01*
Y279916D01*
X505631D01*
Y278904D01*
X485390D01*
Y279916D01*
X484378D01*
Y280928D01*
X483366D01*
Y281940D01*
X484378D01*
Y282952D01*
X506643D01*
Y281940D01*
D02*
G37*
G36*
X343702Y297121D02*
Y296108D01*
Y295096D01*
Y294084D01*
Y293072D01*
Y292060D01*
Y291048D01*
Y290036D01*
Y289024D01*
Y288012D01*
Y287000D01*
Y285988D01*
Y284976D01*
Y283964D01*
Y282952D01*
Y281940D01*
Y280928D01*
Y279916D01*
Y278904D01*
X338642D01*
Y279916D01*
Y280928D01*
Y281940D01*
Y282952D01*
Y283964D01*
Y284976D01*
Y285988D01*
Y287000D01*
Y288012D01*
Y289024D01*
Y290036D01*
Y291048D01*
Y292060D01*
Y293072D01*
Y294084D01*
Y295096D01*
Y296108D01*
Y297121D01*
Y298133D01*
X343702D01*
Y297121D01*
D02*
G37*
G36*
X304231D02*
X305244D01*
Y296108D01*
X306256D01*
Y295096D01*
Y294084D01*
Y293072D01*
Y292060D01*
Y291048D01*
Y290036D01*
Y289024D01*
Y288012D01*
Y287000D01*
Y285988D01*
Y284976D01*
Y283964D01*
Y282952D01*
Y281940D01*
Y280928D01*
X305244D01*
Y279916D01*
X304231D01*
Y278904D01*
X295123D01*
Y279916D01*
X294111D01*
Y280928D01*
Y281940D01*
X293099D01*
Y282952D01*
Y283964D01*
Y284976D01*
Y285988D01*
Y287000D01*
Y288012D01*
Y289024D01*
Y290036D01*
Y291048D01*
Y292060D01*
Y293072D01*
Y294084D01*
Y295096D01*
Y296108D01*
X294111D01*
Y297121D01*
X295123D01*
Y298133D01*
X304231D01*
Y297121D01*
D02*
G37*
G36*
X289051Y303193D02*
Y302181D01*
Y301169D01*
Y300157D01*
Y299145D01*
Y298133D01*
Y297121D01*
Y296108D01*
Y295096D01*
Y294084D01*
Y293072D01*
Y292060D01*
Y291048D01*
Y290036D01*
Y289024D01*
Y288012D01*
Y287000D01*
Y285988D01*
Y284976D01*
Y283964D01*
Y282952D01*
Y281940D01*
Y280928D01*
Y279916D01*
Y278904D01*
X285002D01*
Y279916D01*
Y280928D01*
Y281940D01*
Y282952D01*
Y283964D01*
Y284976D01*
Y285988D01*
Y287000D01*
Y288012D01*
Y289024D01*
Y290036D01*
Y291048D01*
Y292060D01*
Y293072D01*
Y294084D01*
Y295096D01*
Y296108D01*
Y297121D01*
Y298133D01*
Y299145D01*
Y300157D01*
Y301169D01*
Y302181D01*
Y303193D01*
Y304205D01*
X289051D01*
Y303193D01*
D02*
G37*
G36*
X263749D02*
Y302181D01*
Y301169D01*
Y300157D01*
Y299145D01*
Y298133D01*
Y297121D01*
Y296108D01*
Y295096D01*
Y294084D01*
Y293072D01*
Y292060D01*
Y291048D01*
Y290036D01*
Y289024D01*
Y288012D01*
Y287000D01*
Y285988D01*
Y284976D01*
Y283964D01*
Y282952D01*
Y281940D01*
Y280928D01*
Y279916D01*
X262737D01*
Y278904D01*
X259701D01*
Y279916D01*
X257677D01*
Y278904D01*
X252617D01*
Y279916D01*
X251605D01*
Y280928D01*
X250592D01*
Y281940D01*
Y282952D01*
Y283964D01*
Y284976D01*
Y285988D01*
Y287000D01*
Y288012D01*
Y289024D01*
Y290036D01*
Y291048D01*
Y292060D01*
Y293072D01*
Y294084D01*
Y295096D01*
Y296108D01*
X251605D01*
Y297121D01*
X252617D01*
Y298133D01*
X258689D01*
Y299145D01*
Y300157D01*
Y301169D01*
Y302181D01*
Y303193D01*
Y304205D01*
X263749D01*
Y303193D01*
D02*
G37*
G36*
X244520D02*
X245532D01*
Y302181D01*
Y301169D01*
Y300157D01*
X246544D01*
Y299145D01*
Y298133D01*
Y297121D01*
Y296108D01*
Y295096D01*
Y294084D01*
Y293072D01*
Y292060D01*
Y291048D01*
Y290036D01*
Y289024D01*
Y288012D01*
Y287000D01*
Y285988D01*
Y284976D01*
Y283964D01*
Y282952D01*
Y281940D01*
Y280928D01*
Y279916D01*
X245532D01*
Y278904D01*
X241484D01*
Y279916D01*
Y280928D01*
Y281940D01*
Y282952D01*
Y283964D01*
Y284976D01*
Y285988D01*
Y287000D01*
X237436D01*
Y285988D01*
Y284976D01*
Y283964D01*
Y282952D01*
Y281940D01*
Y280928D01*
Y279916D01*
X236424D01*
Y278904D01*
X232376D01*
Y279916D01*
Y280928D01*
Y281940D01*
Y282952D01*
Y283964D01*
Y284976D01*
Y285988D01*
Y287000D01*
Y288012D01*
Y289024D01*
Y290036D01*
Y291048D01*
Y292060D01*
Y293072D01*
Y294084D01*
Y295096D01*
Y296108D01*
Y297121D01*
Y298133D01*
Y299145D01*
Y300157D01*
Y301169D01*
Y302181D01*
X233388D01*
Y303193D01*
X234400D01*
Y304205D01*
X244520D01*
Y303193D01*
D02*
G37*
G36*
X210110D02*
Y302181D01*
Y301169D01*
Y300157D01*
Y299145D01*
Y298133D01*
Y297121D01*
Y296108D01*
Y295096D01*
Y294084D01*
Y293072D01*
Y292060D01*
Y291048D01*
Y290036D01*
Y289024D01*
Y288012D01*
Y287000D01*
Y285988D01*
Y284976D01*
Y283964D01*
Y282952D01*
Y281940D01*
Y280928D01*
Y279916D01*
Y278904D01*
X199990D01*
Y279916D01*
Y280928D01*
Y281940D01*
Y282952D01*
Y283964D01*
X205050D01*
Y284976D01*
Y285988D01*
Y287000D01*
Y288012D01*
Y289024D01*
Y290036D01*
X199990D01*
Y291048D01*
Y292060D01*
Y293072D01*
Y294084D01*
X205050D01*
Y295096D01*
Y296108D01*
Y297121D01*
Y298133D01*
Y299145D01*
X199990D01*
Y300157D01*
Y301169D01*
Y302181D01*
Y303193D01*
Y304205D01*
X210110D01*
Y303193D01*
D02*
G37*
G36*
X518788Y295096D02*
X521824D01*
Y294084D01*
X522836D01*
Y293072D01*
X523848D01*
Y292060D01*
Y291048D01*
X524860D01*
Y290036D01*
Y289024D01*
Y288012D01*
Y287000D01*
Y285988D01*
Y284976D01*
Y283964D01*
Y282952D01*
Y281940D01*
Y280928D01*
Y279916D01*
Y278904D01*
Y277892D01*
X523848D01*
Y276879D01*
X521824D01*
Y277892D01*
X520812D01*
Y278904D01*
Y279916D01*
Y280928D01*
Y281940D01*
Y282952D01*
Y283964D01*
Y284976D01*
Y285988D01*
Y287000D01*
Y288012D01*
Y289024D01*
Y290036D01*
X519800D01*
Y291048D01*
X518788D01*
Y292060D01*
X484378D01*
Y293072D01*
Y294084D01*
Y295096D01*
X485390D01*
Y296108D01*
X518788D01*
Y295096D01*
D02*
G37*
G36*
X423654Y279916D02*
X424666D01*
Y278904D01*
Y277892D01*
X423654D01*
Y276879D01*
X401389D01*
Y277892D01*
Y278904D01*
Y279916D01*
X402401D01*
Y280928D01*
X423654D01*
Y279916D01*
D02*
G37*
G36*
X481342Y319386D02*
X482354D01*
Y318374D01*
Y317362D01*
Y316350D01*
Y315338D01*
Y314326D01*
Y313314D01*
Y312301D01*
Y311289D01*
Y310277D01*
Y309265D01*
Y308253D01*
Y307241D01*
Y306229D01*
Y305217D01*
Y304205D01*
Y303193D01*
Y302181D01*
Y301169D01*
Y300157D01*
Y299145D01*
Y298133D01*
Y297121D01*
Y296108D01*
Y295096D01*
Y294084D01*
Y293072D01*
Y292060D01*
Y291048D01*
Y290036D01*
Y289024D01*
Y288012D01*
Y287000D01*
Y285988D01*
Y284976D01*
Y283964D01*
Y282952D01*
Y281940D01*
Y280928D01*
Y279916D01*
Y278904D01*
Y277892D01*
Y276879D01*
Y275867D01*
Y274855D01*
Y273843D01*
Y272831D01*
Y271819D01*
Y270807D01*
Y269795D01*
Y268783D01*
Y267771D01*
Y266759D01*
Y265747D01*
X481342D01*
Y264735D01*
X426690D01*
Y265747D01*
Y266759D01*
Y267771D01*
Y268783D01*
Y269795D01*
Y270807D01*
Y271819D01*
Y272831D01*
Y273843D01*
Y274855D01*
Y275867D01*
Y276879D01*
Y277892D01*
Y278904D01*
Y279916D01*
Y280928D01*
Y281940D01*
Y282952D01*
Y283964D01*
Y284976D01*
Y285988D01*
Y287000D01*
Y288012D01*
Y289024D01*
Y290036D01*
Y291048D01*
Y292060D01*
Y293072D01*
Y294084D01*
Y295096D01*
Y296108D01*
Y297121D01*
Y298133D01*
Y299145D01*
Y300157D01*
Y301169D01*
Y302181D01*
Y303193D01*
Y304205D01*
Y305217D01*
Y306229D01*
Y307241D01*
Y308253D01*
Y309265D01*
Y310277D01*
Y311289D01*
Y312301D01*
Y313314D01*
Y314326D01*
Y315338D01*
Y316350D01*
Y317362D01*
Y318374D01*
Y319386D01*
Y320398D01*
X481342D01*
Y319386D01*
D02*
G37*
G36*
X469197Y261699D02*
X470209D01*
Y260686D01*
Y259674D01*
Y258662D01*
Y257650D01*
Y256638D01*
Y255626D01*
Y254614D01*
Y253602D01*
Y252590D01*
Y251578D01*
Y250566D01*
Y249554D01*
Y248542D01*
Y247530D01*
Y246518D01*
Y245506D01*
Y244494D01*
Y243482D01*
Y242470D01*
Y241457D01*
Y240445D01*
X469197D01*
Y239433D01*
X467173D01*
Y240445D01*
X466161D01*
Y241457D01*
Y242470D01*
Y243482D01*
Y244494D01*
Y245506D01*
Y246518D01*
Y247530D01*
Y248542D01*
Y249554D01*
Y250566D01*
Y251578D01*
Y252590D01*
Y253602D01*
Y254614D01*
Y255626D01*
Y256638D01*
Y257650D01*
Y258662D01*
Y259674D01*
Y260686D01*
Y261699D01*
Y262711D01*
X469197D01*
Y261699D01*
D02*
G37*
G36*
X444907D02*
Y260686D01*
Y259674D01*
Y258662D01*
Y257650D01*
Y256638D01*
Y255626D01*
Y254614D01*
Y253602D01*
Y252590D01*
Y251578D01*
Y250566D01*
Y249554D01*
Y248542D01*
Y247530D01*
Y246518D01*
Y245506D01*
Y244494D01*
Y243482D01*
Y242470D01*
Y241457D01*
Y240445D01*
X443895D01*
Y239433D01*
X441871D01*
Y240445D01*
X440859D01*
Y241457D01*
Y242470D01*
Y243482D01*
Y244494D01*
Y245506D01*
Y246518D01*
Y247530D01*
Y248542D01*
Y249554D01*
Y250566D01*
Y251578D01*
Y252590D01*
Y253602D01*
Y254614D01*
Y255626D01*
Y256638D01*
Y257650D01*
Y258662D01*
Y259674D01*
Y260686D01*
Y261699D01*
X441871D01*
Y262711D01*
X444907D01*
Y261699D01*
D02*
G37*
G36*
X457052D02*
X458064D01*
Y260686D01*
Y259674D01*
Y258662D01*
Y257650D01*
Y256638D01*
Y255626D01*
Y254614D01*
Y253602D01*
Y252590D01*
Y251578D01*
Y250566D01*
Y249554D01*
Y248542D01*
Y247530D01*
Y246518D01*
Y245506D01*
Y244494D01*
Y243482D01*
Y242470D01*
Y241457D01*
Y240445D01*
Y239433D01*
Y238421D01*
Y237409D01*
Y236397D01*
Y235385D01*
Y234373D01*
Y233361D01*
Y232349D01*
Y231337D01*
Y230325D01*
Y229313D01*
Y228301D01*
X457052D01*
Y227289D01*
Y226277D01*
Y225264D01*
X456040D01*
Y224252D01*
X455028D01*
Y223240D01*
X453004D01*
Y222228D01*
X438835D01*
Y223240D01*
Y224252D01*
Y225264D01*
X439847D01*
Y226277D01*
X451992D01*
Y227289D01*
X453004D01*
Y228301D01*
X454016D01*
Y229313D01*
Y230325D01*
Y231337D01*
Y232349D01*
Y233361D01*
Y234373D01*
Y235385D01*
Y236397D01*
Y237409D01*
Y238421D01*
Y239433D01*
Y240445D01*
Y241457D01*
Y242470D01*
Y243482D01*
Y244494D01*
Y245506D01*
Y246518D01*
Y247530D01*
Y248542D01*
Y249554D01*
Y250566D01*
Y251578D01*
Y252590D01*
Y253602D01*
Y254614D01*
Y255626D01*
Y256638D01*
Y257650D01*
Y258662D01*
Y259674D01*
Y260686D01*
Y261699D01*
Y262711D01*
X457052D01*
Y261699D01*
D02*
G37*
%LPC*%
G36*
X274882Y295096D02*
X272858D01*
Y294084D01*
X271846D01*
Y293072D01*
Y292060D01*
Y291048D01*
Y290036D01*
Y289024D01*
Y288012D01*
Y287000D01*
Y285988D01*
Y284976D01*
Y283964D01*
Y282952D01*
X275894D01*
Y283964D01*
Y284976D01*
Y285988D01*
Y287000D01*
Y288012D01*
Y289024D01*
Y290036D01*
Y291048D01*
Y292060D01*
Y293072D01*
Y294084D01*
X274882D01*
Y295096D01*
D02*
G37*
G36*
X302207D02*
X298159D01*
Y294084D01*
Y293072D01*
Y292060D01*
Y291048D01*
Y290036D01*
Y289024D01*
Y288012D01*
Y287000D01*
Y285988D01*
Y284976D01*
Y283964D01*
Y282952D01*
Y281940D01*
X301195D01*
Y282952D01*
X302207D01*
Y283964D01*
Y284976D01*
Y285988D01*
Y287000D01*
Y288012D01*
Y289024D01*
Y290036D01*
Y291048D01*
Y292060D01*
Y293072D01*
Y294084D01*
Y295096D01*
D02*
G37*
G36*
X257677D02*
X255653D01*
Y294084D01*
X254641D01*
Y293072D01*
Y292060D01*
Y291048D01*
Y290036D01*
Y289024D01*
Y288012D01*
Y287000D01*
Y285988D01*
Y284976D01*
Y283964D01*
Y282952D01*
X258689D01*
Y283964D01*
Y284976D01*
Y285988D01*
Y287000D01*
Y288012D01*
Y289024D01*
Y290036D01*
Y291048D01*
Y292060D01*
Y293072D01*
Y294084D01*
X257677D01*
Y295096D01*
D02*
G37*
G36*
X240472Y301169D02*
X237436D01*
Y300157D01*
Y299145D01*
Y298133D01*
Y297121D01*
Y296108D01*
Y295096D01*
Y294084D01*
Y293072D01*
Y292060D01*
X241484D01*
Y293072D01*
Y294084D01*
Y295096D01*
Y296108D01*
Y297121D01*
Y298133D01*
Y299145D01*
Y300157D01*
X240472D01*
Y301169D01*
D02*
G37*
G36*
X478305Y316350D02*
X430739D01*
Y315338D01*
Y314326D01*
Y313314D01*
Y312301D01*
Y311289D01*
Y310277D01*
Y309265D01*
Y308253D01*
Y307241D01*
Y306229D01*
Y305217D01*
Y304205D01*
Y303193D01*
Y302181D01*
Y301169D01*
Y300157D01*
Y299145D01*
Y298133D01*
Y297121D01*
Y296108D01*
Y295096D01*
Y294084D01*
Y293072D01*
Y292060D01*
Y291048D01*
Y290036D01*
Y289024D01*
Y288012D01*
Y287000D01*
Y285988D01*
Y284976D01*
Y283964D01*
Y282952D01*
Y281940D01*
Y280928D01*
Y279916D01*
Y278904D01*
Y277892D01*
Y276879D01*
Y275867D01*
Y274855D01*
Y273843D01*
Y272831D01*
Y271819D01*
Y270807D01*
Y269795D01*
Y268783D01*
X478305D01*
Y269795D01*
Y270807D01*
Y271819D01*
Y272831D01*
Y273843D01*
Y274855D01*
Y275867D01*
Y276879D01*
Y277892D01*
Y278904D01*
Y279916D01*
Y280928D01*
Y281940D01*
Y282952D01*
Y283964D01*
Y284976D01*
Y285988D01*
Y287000D01*
Y288012D01*
Y289024D01*
Y290036D01*
Y291048D01*
Y292060D01*
Y293072D01*
Y294084D01*
Y295096D01*
Y296108D01*
Y297121D01*
Y298133D01*
Y299145D01*
Y300157D01*
Y301169D01*
Y302181D01*
Y303193D01*
Y304205D01*
Y305217D01*
Y306229D01*
Y307241D01*
Y308253D01*
Y309265D01*
Y310277D01*
Y311289D01*
Y312301D01*
Y313314D01*
Y314326D01*
Y315338D01*
Y316350D01*
D02*
G37*
%LPD*%
G36*
X469197Y307241D02*
X470209D01*
Y306229D01*
Y305217D01*
Y304205D01*
Y303193D01*
Y302181D01*
Y301169D01*
Y300157D01*
Y299145D01*
Y298133D01*
Y297121D01*
Y296108D01*
Y295096D01*
Y294084D01*
Y293072D01*
Y292060D01*
Y291048D01*
Y290036D01*
Y289024D01*
Y288012D01*
Y287000D01*
Y285988D01*
Y284976D01*
Y283964D01*
Y282952D01*
Y281940D01*
Y280928D01*
Y279916D01*
Y278904D01*
Y277892D01*
X469197D01*
Y276879D01*
X438835D01*
Y277892D01*
Y278904D01*
Y279916D01*
Y280928D01*
Y281940D01*
Y282952D01*
Y283964D01*
Y284976D01*
Y285988D01*
Y287000D01*
Y288012D01*
Y289024D01*
Y290036D01*
Y291048D01*
Y292060D01*
Y293072D01*
Y294084D01*
Y295096D01*
Y296108D01*
Y297121D01*
Y298133D01*
Y299145D01*
Y300157D01*
Y301169D01*
Y302181D01*
Y303193D01*
Y304205D01*
Y305217D01*
Y306229D01*
Y307241D01*
Y308253D01*
X469197D01*
Y307241D01*
D02*
G37*
%LPC*%
G36*
X466161Y304205D02*
X442883D01*
Y303193D01*
Y302181D01*
Y301169D01*
Y300157D01*
Y299145D01*
Y298133D01*
Y297121D01*
Y296108D01*
Y295096D01*
Y294084D01*
Y293072D01*
Y292060D01*
Y291048D01*
Y290036D01*
Y289024D01*
Y288012D01*
Y287000D01*
Y285988D01*
Y284976D01*
Y283964D01*
Y282952D01*
Y281940D01*
Y280928D01*
X466161D01*
Y281940D01*
Y282952D01*
Y283964D01*
Y284976D01*
Y285988D01*
Y287000D01*
Y288012D01*
Y289024D01*
Y290036D01*
Y291048D01*
Y292060D01*
Y293072D01*
Y294084D01*
Y295096D01*
Y296108D01*
Y297121D01*
Y298133D01*
Y299145D01*
Y300157D01*
Y301169D01*
Y302181D01*
Y303193D01*
Y304205D01*
D02*
G37*
%LPD*%
D58*
X21995Y168000D02*
D03*
Y234000D02*
D03*
D59*
X600750Y262500D02*
D03*
Y307500D02*
D03*
X665750D02*
D03*
X192500Y83380D02*
D03*
Y18380D02*
D03*
X237500D02*
D03*
D60*
X665750Y262500D02*
D03*
D61*
X237500Y83380D02*
D03*
D62*
X152400Y508000D02*
D03*
D63*
X114200Y83000D02*
D03*
X139600D02*
D03*
X391160Y508000D02*
D03*
X365760D02*
D03*
X340360D02*
D03*
X314960D02*
D03*
X289560D02*
D03*
X264160D02*
D03*
X238760D02*
D03*
X213360D02*
D03*
X187960D02*
D03*
X457200D02*
D03*
X482600D02*
D03*
X508000D02*
D03*
X533400D02*
D03*
X558800D02*
D03*
X584200D02*
D03*
X609600D02*
D03*
X635000Y25400D02*
D03*
X609600D02*
D03*
X584200D02*
D03*
X558800D02*
D03*
X533400D02*
D03*
X457200D02*
D03*
X431800D02*
D03*
X406400D02*
D03*
X381000D02*
D03*
X355600D02*
D03*
X330200D02*
D03*
X304800D02*
D03*
X595250Y201930D02*
D03*
X569850D02*
D03*
X544450D02*
D03*
X519050D02*
D03*
X493650D02*
D03*
X468250D02*
D03*
X442850D02*
D03*
X417450D02*
D03*
X392050D02*
D03*
X366650D02*
D03*
X341250D02*
D03*
X315850D02*
D03*
X290450D02*
D03*
X620650Y125730D02*
D03*
X595250D02*
D03*
X569850D02*
D03*
X544450D02*
D03*
X519050D02*
D03*
X493650D02*
D03*
X468250D02*
D03*
X442850D02*
D03*
X417450D02*
D03*
X392050D02*
D03*
X366650D02*
D03*
X341250D02*
D03*
X315850D02*
D03*
X290450D02*
D03*
D64*
X165000Y83000D02*
D03*
X416560Y508000D02*
D03*
X635000D02*
D03*
X508000Y25400D02*
D03*
X279400D02*
D03*
X620650Y201930D02*
D03*
D65*
X146000Y446000D02*
D03*
X662000Y469000D02*
D03*
D66*
X146000Y420600D02*
D03*
Y395200D02*
D03*
Y369800D02*
D03*
X662000Y418200D02*
D03*
Y443600D02*
D03*
D67*
X25400Y316600D02*
D03*
X50800D02*
D03*
X25400Y342000D02*
D03*
X76200Y411480D02*
D03*
X50800D02*
D03*
X25400D02*
D03*
X76200Y386080D02*
D03*
X50800D02*
D03*
X76200Y497840D02*
D03*
X50800D02*
D03*
X25400D02*
D03*
X76200Y472440D02*
D03*
X50800D02*
D03*
D68*
Y342000D02*
D03*
X25400Y386080D02*
D03*
Y472440D02*
D03*
D69*
X20000Y22000D02*
D03*
X21000Y125000D02*
D03*
D70*
X139700Y25400D02*
D03*
X660400Y76200D02*
D03*
Y355600D02*
D03*
D71*
X314250Y424500D02*
D03*
X325500Y416250D02*
D03*
X324000Y403750D02*
D03*
X475750Y250000D02*
D03*
X59000Y221250D02*
D03*
X199000Y226000D02*
D03*
X462250Y86500D02*
D03*
X113250Y155000D02*
D03*
X106652Y162271D02*
D03*
X113250Y162000D02*
D03*
X120756D02*
D03*
X147000Y174000D02*
D03*
X135600Y183000D02*
D03*
X147000Y183570D02*
D03*
X157000Y184000D02*
D03*
X87000Y115663D02*
D03*
Y106500D02*
D03*
X402000Y479000D02*
D03*
X414000D02*
D03*
X402000Y486000D02*
D03*
X414000D02*
D03*
Y375000D02*
D03*
X402000D02*
D03*
X414000Y367000D02*
D03*
X327000Y268800D02*
D03*
X277500Y485000D02*
D03*
X242000Y185500D02*
D03*
X613000Y72000D02*
D03*
Y64000D02*
D03*
X175000Y415250D02*
D03*
X324000Y66000D02*
D03*
X109000Y406250D02*
D03*
X114200Y414000D02*
D03*
X61000Y438566D02*
D03*
X173753Y199323D02*
D03*
X573000Y415000D02*
D03*
Y404000D02*
D03*
X605250Y183000D02*
D03*
X373000Y68500D02*
D03*
X304000Y82000D02*
D03*
X243000Y134034D02*
D03*
X76500Y184000D02*
D03*
X629453Y184548D02*
D03*
X213000Y388500D02*
D03*
X210000Y434000D02*
D03*
X58566Y215000D02*
D03*
X182000Y288000D02*
D03*
X449000Y217000D02*
D03*
X78000Y293000D02*
D03*
X402000Y367000D02*
D03*
X201800Y410200D02*
D03*
X393000Y252000D02*
D03*
X107000D02*
D03*
X138000Y227000D02*
D03*
X150000Y273000D02*
D03*
X177000Y210000D02*
D03*
X235000Y203000D02*
D03*
X270000Y235000D02*
D03*
X220000Y249000D02*
D03*
Y335000D02*
D03*
X274000Y342000D02*
D03*
X58000Y522000D02*
D03*
X574000Y386000D02*
D03*
X629000Y175000D02*
D03*
X680000Y127000D02*
D03*
X469000Y107000D02*
D03*
X394000Y85000D02*
D03*
X404000Y111660D02*
D03*
X198500Y148000D02*
D03*
X208000Y141000D02*
D03*
X161000Y134000D02*
D03*
X77000Y248500D02*
D03*
X77500Y227500D02*
D03*
X225000Y447500D02*
D03*
X122000Y409000D02*
D03*
X9000Y289000D02*
D03*
X39500Y283500D02*
D03*
X141000Y138000D02*
D03*
X283000Y66000D02*
D03*
X320000Y72000D02*
D03*
X443000Y41000D02*
D03*
X462000D02*
D03*
X91000Y321000D02*
D03*
Y378000D02*
D03*
X101000Y271000D02*
D03*
X98000Y370000D02*
D03*
X482600Y92000D02*
D03*
X453500Y151500D02*
D03*
X208000Y207000D02*
D03*
X166000Y209000D02*
D03*
X159000Y201000D02*
D03*
X113000Y194000D02*
D03*
Y217000D02*
D03*
X217000Y481000D02*
D03*
X547000Y404000D02*
D03*
X560000Y416000D02*
D03*
X670000Y159000D02*
D03*
X625000Y450000D02*
D03*
X304000Y139280D02*
D03*
Y238787D02*
D03*
M02*
