G04*
G04 #@! TF.GenerationSoftware,Altium Limited,Altium Designer,18.1.9 (240)*
G04*
G04 Layer_Color=8421504*
%FSLAX44Y44*%
%MOMM*%
G71*
G01*
G75*
%ADD14R,1.9000X1.9000*%
%ADD15R,1.4000X1.6000*%
%ADD16R,1.3500X0.4000*%
%ADD17R,1.3000X0.7000*%
%ADD18R,0.7000X1.3000*%
%ADD19R,0.6858X0.5588*%
%ADD20R,0.5588X0.6858*%
%ADD21R,0.8000X0.8000*%
%ADD22R,0.9000X1.3000*%
%ADD23R,1.0000X0.5500*%
%ADD24R,1.3000X0.9000*%
%ADD25R,2.5000X2.6000*%
%ADD26R,0.6000X2.2000*%
%ADD27R,3.5000X2.2000*%
%ADD28R,2.6000X2.5000*%
%ADD29R,0.5500X1.0000*%
%ADD30R,1.6000X3.0000*%
%ADD31R,2.7000X2.0000*%
%ADD32R,1.5000X0.5500*%
%ADD33R,0.5500X1.5000*%
%ADD34R,0.9000X0.6000*%
D14*
X21995Y213000D02*
D03*
Y189000D02*
D03*
D15*
X46495Y169000D02*
D03*
Y233000D02*
D03*
D16*
X48745Y188000D02*
D03*
Y194500D02*
D03*
Y201000D02*
D03*
Y207500D02*
D03*
Y214000D02*
D03*
D17*
X175000Y408000D02*
D03*
Y389000D02*
D03*
X220000Y265000D02*
D03*
Y284000D02*
D03*
X612000Y470500D02*
D03*
Y451500D02*
D03*
X585000D02*
D03*
Y470500D02*
D03*
X635000Y430100D02*
D03*
Y411100D02*
D03*
X255000Y151500D02*
D03*
Y170500D02*
D03*
X648759Y241500D02*
D03*
Y222500D02*
D03*
X331000Y67500D02*
D03*
Y86500D02*
D03*
Y67500D02*
D03*
Y48500D02*
D03*
X90000Y257500D02*
D03*
Y276500D02*
D03*
X671000Y204500D02*
D03*
Y185500D02*
D03*
X28000Y274010D02*
D03*
Y293010D02*
D03*
X670500Y221500D02*
D03*
Y240500D02*
D03*
X261000Y69000D02*
D03*
Y50000D02*
D03*
D18*
X281750Y445250D02*
D03*
X300750D02*
D03*
X301750Y422000D02*
D03*
X282750D02*
D03*
X99500Y349000D02*
D03*
X80500D02*
D03*
X105500Y217000D02*
D03*
X86500D02*
D03*
X85500Y194000D02*
D03*
X104500D02*
D03*
X103500Y169000D02*
D03*
X84500D02*
D03*
X386500Y99000D02*
D03*
X367500D02*
D03*
X235500Y448000D02*
D03*
X254500D02*
D03*
X426000Y230000D02*
D03*
X407000D02*
D03*
X574500Y352000D02*
D03*
X593500D02*
D03*
X29500Y253000D02*
D03*
X10500D02*
D03*
X258500Y90000D02*
D03*
X277500D02*
D03*
X128500Y212000D02*
D03*
X147500D02*
D03*
X607250Y225750D02*
D03*
X626250D02*
D03*
D19*
X9000Y298192D02*
D03*
Y273808D02*
D03*
D20*
X629192Y243000D02*
D03*
X604808D02*
D03*
D21*
X237000Y379500D02*
D03*
X253000D02*
D03*
X239000Y428000D02*
D03*
X255000D02*
D03*
X237000Y397660D02*
D03*
X253000D02*
D03*
X593000Y372000D02*
D03*
X577000D02*
D03*
D22*
X244000Y482000D02*
D03*
X263000D02*
D03*
X22500Y522000D02*
D03*
X41500D02*
D03*
X146000Y235000D02*
D03*
X127000D02*
D03*
X260000Y342000D02*
D03*
X241000D02*
D03*
X261000Y235000D02*
D03*
X242000D02*
D03*
X402000Y51000D02*
D03*
X383000D02*
D03*
X463500Y76000D02*
D03*
X482500D02*
D03*
X463000Y230000D02*
D03*
X444000D02*
D03*
X403000Y76200D02*
D03*
X422000D02*
D03*
X423000Y99000D02*
D03*
X404000D02*
D03*
X441500D02*
D03*
X460500D02*
D03*
X406000Y252000D02*
D03*
X425000D02*
D03*
X463000Y251000D02*
D03*
X444000D02*
D03*
X671000Y125730D02*
D03*
X652000D02*
D03*
X69000Y293000D02*
D03*
X50000D02*
D03*
X107000Y238000D02*
D03*
X88000D02*
D03*
X595000Y329750D02*
D03*
X576000D02*
D03*
X462000Y54000D02*
D03*
X481000D02*
D03*
D23*
X196000Y424000D02*
D03*
Y443000D02*
D03*
X169000Y424000D02*
D03*
Y433500D02*
D03*
Y443000D02*
D03*
X235500Y147500D02*
D03*
Y166500D02*
D03*
X208500Y147500D02*
D03*
Y157000D02*
D03*
Y166500D02*
D03*
D24*
X215000Y448000D02*
D03*
Y429000D02*
D03*
X220000Y238000D02*
D03*
Y219000D02*
D03*
X201160Y237000D02*
D03*
Y218000D02*
D03*
X220000Y301000D02*
D03*
Y320000D02*
D03*
X177000Y238000D02*
D03*
Y219000D02*
D03*
X25000Y450000D02*
D03*
Y431000D02*
D03*
X635000Y450500D02*
D03*
Y469500D02*
D03*
X114000Y130660D02*
D03*
Y111660D02*
D03*
X208000Y132000D02*
D03*
Y113000D02*
D03*
X304000Y67500D02*
D03*
Y48500D02*
D03*
X355000Y68500D02*
D03*
Y49500D02*
D03*
X222000Y203000D02*
D03*
Y184000D02*
D03*
X648000Y186000D02*
D03*
Y205000D02*
D03*
X233000Y132500D02*
D03*
Y113500D02*
D03*
X197000Y181160D02*
D03*
Y200160D02*
D03*
X443000Y59000D02*
D03*
Y78000D02*
D03*
D25*
X409500Y283000D02*
D03*
X458500D02*
D03*
D26*
X135600Y116000D02*
D03*
X148300D02*
D03*
X161000D02*
D03*
X173700D02*
D03*
X186400D02*
D03*
D27*
X161000Y178000D02*
D03*
D28*
X251000Y264000D02*
D03*
Y313000D02*
D03*
D29*
X67000Y275000D02*
D03*
X48000D02*
D03*
X67000Y248000D02*
D03*
X57500D02*
D03*
X48000D02*
D03*
X651500Y143500D02*
D03*
X670500D02*
D03*
X651500Y170500D02*
D03*
X661000D02*
D03*
X670500D02*
D03*
D30*
X74000Y100000D02*
D03*
Y141000D02*
D03*
X71000Y17750D02*
D03*
Y58750D02*
D03*
D31*
X19750Y57500D02*
D03*
Y89500D02*
D03*
D32*
X196000Y272000D02*
D03*
Y280000D02*
D03*
Y288000D02*
D03*
Y296000D02*
D03*
Y304000D02*
D03*
Y312000D02*
D03*
Y320000D02*
D03*
Y328000D02*
D03*
X112000D02*
D03*
Y320000D02*
D03*
Y312000D02*
D03*
Y304000D02*
D03*
Y296000D02*
D03*
Y288000D02*
D03*
Y280000D02*
D03*
Y272000D02*
D03*
D33*
X182000Y342000D02*
D03*
X174000D02*
D03*
X166000D02*
D03*
X158000D02*
D03*
X150000D02*
D03*
X142000D02*
D03*
X134000D02*
D03*
X126000D02*
D03*
Y258000D02*
D03*
X134000D02*
D03*
X142000D02*
D03*
X150000D02*
D03*
X158000D02*
D03*
X166000D02*
D03*
X174000D02*
D03*
X182000D02*
D03*
D34*
X70000Y227500D02*
D03*
Y212500D02*
D03*
X68000Y182500D02*
D03*
Y197500D02*
D03*
M02*
